<svg width="898" height="390" viewBox="0 0 898 390" fill="none" xmlns="http://www.w3.org/2000/svg">
    <rect width="898" height="389.133" rx="79.8222" fill="white"/>
    <path d="M276.721 249.823L206.498 251.439L198.056 133.083L277.26 130.568L276.721 142.602L238.826 147.092L234.156 184.269L272.411 183.91L273.309 200.074L232.719 197.02L227.87 237.071L277.44 231.324L276.721 249.823ZM373.251 155.892C375.526 155.892 377.741 156.251 379.896 156.97C386.002 164.393 390.193 177.264 392.468 195.584C394.743 213.783 395.88 231.863 395.88 249.823L363.552 252.517C363.552 224.978 362.535 199.894 360.499 177.264C344.575 183.131 333.978 207.677 328.71 250.9L310.929 252.517L301.77 163.435L340.204 157.508L336.253 189.118H337.869C342.659 178.701 348.107 170.559 354.213 164.692C360.319 158.825 366.665 155.892 373.251 155.892ZM477.447 190.734C469.305 190.734 463.139 193.608 458.948 199.355C454.757 204.983 451.704 215.399 449.788 230.606L447.274 250.9L429.494 252.517L420.334 163.435L458.768 157.508L455.176 186.244H456.434C466.012 165.65 478.225 154.695 493.072 153.378L488.043 191.632C483.613 191.034 480.081 190.734 477.447 190.734ZM580.668 216.776C580.668 229.827 577.794 239.346 572.047 245.333C566.419 251.2 555.943 254.133 540.617 254.133C525.291 254.133 513.318 250.661 504.697 243.716C502.901 235.096 502.003 226.475 502.003 217.854C502.003 209.233 503.2 201.151 505.595 193.608C508.109 185.945 511.222 179.42 514.934 174.032C522.717 163.016 529.661 156.012 535.768 153.018C547.262 158.885 557.38 166.848 566.12 176.905C575.818 187.921 580.668 201.211 580.668 216.776ZM559.834 211.927C559.834 200.552 557.439 190.136 552.65 180.677C542.712 185.945 534.51 193.967 528.045 204.743C521.579 215.519 518.346 226.415 518.346 237.43C522.178 238.149 527.686 238.508 534.87 238.508C542.054 238.508 549.417 237.251 556.96 234.736C558.876 227.433 559.834 219.83 559.834 211.927ZM611.395 252.517L602.235 127.156L640.67 121.229L629.175 250.9L611.395 252.517ZM674.886 252.517L665.727 127.156L704.161 121.229L692.667 250.9L674.886 252.517Z" fill="black"/>
    </svg>
    