<svg width="3868" height="195" viewBox="0 0 3868 195" fill="none" xmlns="http://www.w3.org/2000/svg">
<path d="M81.2489 43.5762L75.8578 126.322L64.5743 128.203L23.9536 61.003H22.9506L23.3267 126.322L10.7895 126.949L14.1745 44.83L44.5147 42.9494L66.4549 105.51H67.4579L68.7116 44.2031L81.2489 43.5762ZM104.491 129.206C103.07 129.206 102.025 129.164 101.356 129.08C98.5147 127.158 96.2162 124.316 94.461 120.555C92.7893 116.71 91.9535 112.74 91.9535 108.645C91.9535 103.295 93.9595 99.4088 97.9714 96.985C102.067 94.5611 109.547 93.3491 120.413 93.3491C124.425 93.3491 128.604 93.6417 132.95 94.2268L132.7 91.4686C132.365 88.1253 130.777 85.4925 127.935 83.5701C125.094 81.5641 121.458 80.5611 117.028 80.5611C112.598 80.5611 108.168 81.9402 103.739 84.6984L98.2221 66.5194C105.41 63.5941 113.601 62.1314 122.795 62.1314C131.989 62.1314 139.261 64.2209 144.61 68.4C149.959 72.4955 152.634 78.9313 152.634 87.7074C152.634 89.7133 152.55 91.3014 152.383 92.4715L148.873 127.074L136.461 128.203L134.58 110.024H133.577C130.735 116.042 126.807 120.764 121.792 124.191C116.777 127.534 111.01 129.206 104.491 129.206ZM133.452 99.4924L126.807 99.367C121.291 99.367 116.777 99.6596 113.267 100.245C112.097 102.585 111.512 104.674 111.512 106.513C111.512 108.352 111.762 110.107 112.264 111.779C112.765 113.451 113.309 114.579 113.894 115.164C123.924 113.576 130.443 108.352 133.452 99.4924ZM200.285 133.594C197.36 140.865 194.309 145.88 191.133 148.638C188.041 151.48 183.903 152.901 178.721 152.901C173.623 152.901 168.733 151.021 164.053 147.259L167.814 140.865C170.572 141.868 173.581 142.37 176.841 142.37C180.184 142.37 183.193 141.283 185.867 139.11C188.542 136.937 190.255 133.636 191.008 129.206L165.056 66.1433L191.885 62.006L200.16 110.149H201.163L217.336 62.3821L227.491 65.1403L200.285 133.594ZM248.228 129.206C246.808 129.206 245.763 129.164 245.094 129.08C242.252 127.158 239.954 124.316 238.199 120.555C236.527 116.71 235.691 112.74 235.691 108.645C235.691 103.295 237.697 99.4088 241.709 96.985C245.805 94.5611 253.285 93.3491 264.151 93.3491C268.163 93.3491 272.342 93.6417 276.688 94.2268L276.437 91.4686C276.103 88.1253 274.515 85.4925 271.673 83.5701C268.831 81.5641 265.196 80.5611 260.766 80.5611C256.336 80.5611 251.906 81.9402 247.476 84.6984L241.96 66.5194C249.148 63.5941 257.339 62.1314 266.533 62.1314C275.727 62.1314 282.998 64.2209 288.348 68.4C293.697 72.4955 296.372 78.9313 296.372 87.7074C296.372 89.7133 296.288 91.3014 296.121 92.4715L292.61 127.074L280.199 128.203L278.318 110.024H277.315C274.473 116.042 270.545 120.764 265.53 124.191C260.515 127.534 254.748 129.206 248.228 129.206ZM277.19 99.4924L270.545 99.367C265.028 99.367 260.515 99.6596 257.005 100.245C255.834 102.585 255.249 104.674 255.249 106.513C255.249 108.352 255.5 110.107 256.002 111.779C256.503 113.451 257.046 114.579 257.631 115.164C267.661 113.576 274.181 108.352 277.19 99.4924ZM369.975 65.6418L350.542 85.9522L377.748 126.573L353.927 128.203L338.256 98.8655L333.742 103.128L331.611 127.074L319.199 128.203L312.805 40.6927L339.635 36.5554L334.871 90.7163L361.575 59.1224L369.975 65.6418Z" fill="white"/>
<path d="M1662.82 77.996C1668.36 76.2144 1673.96 75.3236 1679.62 75.3236C1685.29 75.3236 1689.64 76.2738 1692.69 78.1742C1693.4 80.3121 1693.76 82.3511 1693.76 84.291C1693.76 88.8441 1691.88 92.6646 1688.12 95.7527C1684.36 98.8013 1679.51 100.999 1673.57 102.345L1672.14 115.647L1666.2 116.241L1662.82 77.996ZM1682.3 86.0133C1682.3 82.9647 1681.05 80.6882 1678.56 79.1838C1677.84 79.1838 1676.97 79.3223 1675.94 79.5995L1673.98 98.3064C1676.56 96.8811 1678.57 95.0401 1680.04 92.7834C1681.54 90.5267 1682.3 88.27 1682.3 86.0133ZM1706.33 83.4002C1715.91 87.2406 1720.7 92.0114 1720.7 97.7125C1720.7 100.682 1719.85 102.84 1718.15 104.186C1716.49 105.492 1713.38 106.145 1708.83 106.145C1705.94 106.145 1703.56 105.928 1701.7 105.492C1700.95 107.353 1700.57 109.293 1700.57 111.312C1702.35 111.55 1704.37 111.668 1706.63 111.668C1710.75 111.668 1714.63 111.015 1718.27 109.709L1720.05 115.469C1717.16 116.38 1713.92 116.835 1710.31 116.835C1703.9 116.835 1699.19 115.667 1696.18 113.331C1695.54 110.52 1695.23 107.868 1695.23 105.373C1695.23 100.385 1696.32 95.8913 1698.49 91.8926C1700.71 87.8939 1703.32 85.0631 1706.33 83.4002ZM1702.89 102.701C1703.4 102.741 1704.69 102.76 1706.75 102.76C1708.85 102.76 1711.24 102.483 1713.93 101.929C1714.05 101.177 1714.11 100.425 1714.11 99.6723C1714.11 97.2968 1713.46 95.0203 1712.15 92.8428C1708.23 95.4558 1705.15 98.7419 1702.89 102.701ZM1746.73 95.8715C1744.03 95.8715 1742 96.8217 1740.61 98.7221C1739.22 100.583 1738.22 104.027 1737.58 109.055L1736.75 115.766L1730.87 116.301L1727.84 86.8447L1740.55 84.8849L1739.36 94.3868H1739.78C1742.95 87.5771 1746.98 83.9545 1751.89 83.519L1750.23 96.1685C1748.77 95.9705 1747.6 95.8715 1746.73 95.8715ZM1755.44 95.8715C1755.44 90.8038 1758.11 86.1716 1763.46 81.975L1773.2 88.5075C1768.8 91.3185 1766.61 94.2681 1766.61 97.3562C1766.61 98.9794 1767.5 101.098 1769.28 103.711C1771.1 106.324 1772.01 108.363 1772.01 109.827C1772.01 115.014 1768.45 119.013 1761.32 121.824L1758.71 118.32C1761.83 116.617 1763.4 114.737 1763.4 112.678C1763.4 110.738 1762.07 108.283 1759.42 105.314C1758.43 104.205 1757.52 102.8 1756.69 101.098C1755.86 99.3952 1755.44 97.6531 1755.44 95.8715ZM1805.74 104.483C1805.74 108.798 1804.79 111.946 1802.89 113.925C1801.03 115.865 1797.56 116.835 1792.5 116.835C1787.43 116.835 1783.47 115.687 1780.62 113.391C1780.02 110.54 1779.73 107.69 1779.73 104.839C1779.73 101.988 1780.12 99.316 1780.91 96.8217C1781.75 94.2879 1782.78 92.1301 1784 90.3485C1786.58 86.7061 1788.87 84.39 1790.89 83.4002C1794.69 85.3402 1798.04 87.973 1800.93 91.2987C1804.13 94.9411 1805.74 99.3358 1805.74 104.483ZM1798.85 102.879C1798.85 99.118 1798.06 95.6736 1796.47 92.5458C1793.19 94.2879 1790.48 96.9405 1788.34 100.504C1786.2 104.067 1785.13 107.67 1785.13 111.312C1786.4 111.55 1788.22 111.668 1790.59 111.668C1792.97 111.668 1795.41 111.253 1797.9 110.421C1798.53 108.006 1798.85 105.492 1798.85 102.879ZM1836.21 84.3504C1836.96 84.3504 1837.69 84.4692 1838.41 84.7068C1840.43 87.1614 1841.81 91.4175 1842.56 97.475C1843.32 103.493 1843.69 109.471 1843.69 115.41L1833 116.301C1833 107.195 1832.67 98.9003 1831.99 91.4175C1826.73 93.3575 1823.22 101.474 1821.48 115.766L1815.6 116.301L1812.57 86.8447L1825.28 84.8849L1823.98 95.337H1824.51C1826.09 91.8926 1827.89 89.2004 1829.91 87.2604C1831.93 85.3204 1834.03 84.3504 1836.21 84.3504ZM1855.93 116.776C1855.26 116.776 1854.77 116.756 1854.45 116.716C1853.1 115.806 1852.02 114.46 1851.18 112.678C1850.39 110.857 1850 108.976 1850 107.036C1850 104.502 1850.95 102.661 1852.85 101.513C1854.79 100.365 1858.33 99.7911 1863.48 99.7911C1865.38 99.7911 1867.36 99.9296 1869.42 100.207L1869.3 98.9003C1869.14 97.3166 1868.39 96.0695 1867.04 95.1589C1865.69 94.2087 1863.97 93.7336 1861.87 93.7336C1859.78 93.7336 1857.68 94.3868 1855.58 95.6934L1852.97 87.0822C1856.37 85.6965 1860.25 85.0037 1864.61 85.0037C1868.96 85.0037 1872.4 85.9935 1874.94 87.973C1877.47 89.913 1878.74 92.9616 1878.74 97.1186C1878.74 98.0688 1878.7 98.8211 1878.62 99.3754L1876.96 115.766L1871.08 116.301L1870.19 107.69H1869.71C1868.37 110.54 1866.51 112.777 1864.13 114.4C1861.75 115.984 1859.02 116.776 1855.93 116.776ZM1869.65 102.701L1866.51 102.642C1863.89 102.642 1861.75 102.78 1860.09 103.057C1859.54 104.166 1859.26 105.156 1859.26 106.027C1859.26 106.898 1859.38 107.729 1859.62 108.521C1859.85 109.313 1860.11 109.847 1860.39 110.124C1865.14 109.372 1868.23 106.898 1869.65 102.701ZM1889.55 116.301L1886.52 74.8485L1899.23 72.8887L1895.43 115.766L1889.55 116.301ZM1942.13 108.462C1943.59 106.561 1944.6 104.502 1945.16 102.285C1945.71 100.068 1945.99 98.148 1945.99 96.5248C1945.99 94.8619 1945.75 91.655 1945.28 86.9041L1957.99 84.9443L1954.18 115.766L1948.31 116.301L1947.12 105.017H1946.7C1943.77 112.856 1939.1 116.776 1932.69 116.776C1931.74 116.776 1930.94 116.617 1930.31 116.301C1928.29 113.846 1926.91 109.689 1926.15 103.829C1925.4 97.9303 1925.03 92.051 1925.03 86.1914L1936.9 85.3006C1936.19 92.2291 1935.83 97.4156 1935.83 100.86C1935.83 104.304 1936.13 108.006 1936.72 111.965C1938.9 111.49 1940.7 110.322 1942.13 108.462ZM1965.73 95.8715C1965.73 90.8038 1968.4 86.1716 1973.75 81.975L1983.49 88.5075C1979.09 91.3185 1976.9 94.2681 1976.9 97.3562C1976.9 98.9794 1977.79 101.098 1979.57 103.711C1981.39 106.324 1982.3 108.363 1982.3 109.827C1982.3 115.014 1978.74 119.013 1971.61 121.824L1969 118.32C1972.13 116.617 1973.69 114.737 1973.69 112.678C1973.69 110.738 1972.36 108.283 1969.71 105.314C1968.72 104.205 1967.81 102.8 1966.98 101.098C1966.15 99.3952 1965.73 97.6531 1965.73 95.8715ZM2001.12 83.4002C2010.7 87.2406 2015.49 92.0114 2015.49 97.7125C2015.49 100.682 2014.64 102.84 2012.94 104.186C2011.28 105.492 2008.17 106.145 2003.62 106.145C2000.73 106.145 1998.35 105.928 1996.49 105.492C1995.74 107.353 1995.36 109.293 1995.36 111.312C1997.14 111.55 1999.16 111.668 2001.42 111.668C2005.54 111.668 2009.42 111.015 2013.06 109.709L2014.84 115.469C2011.95 116.38 2008.7 116.835 2005.1 116.835C1998.69 116.835 1993.98 115.667 1990.97 113.331C1990.33 110.52 1990.02 107.868 1990.02 105.373C1990.02 100.385 1991.11 95.8913 1993.28 91.8926C1995.5 87.8939 1998.11 85.0631 2001.12 83.4002ZM1997.68 102.701C1998.19 102.741 1999.48 102.76 2001.54 102.76C2003.64 102.76 2006.03 102.483 2008.72 101.929C2008.84 101.177 2008.9 100.425 2008.9 99.6723C2008.9 97.2968 2008.25 95.0203 2006.94 92.8428C2003.02 95.4558 1999.93 98.7419 1997.68 102.701Z" fill="white"/>
<path d="M2085.13 77.996C2090.95 76.2144 2096.41 75.3236 2101.52 75.3236C2106.66 75.3236 2110.76 76.2738 2113.81 78.1742C2114.48 80.1933 2114.82 82.1333 2114.82 83.9941C2114.82 88.1512 2113.04 91.5561 2109.47 94.2087C2111.73 95.9507 2113.49 97.9303 2114.76 100.147C2116.07 102.365 2116.72 104.423 2116.72 106.324C2116.72 109.451 2115.27 112.005 2112.38 113.985C2109.49 115.964 2104.98 116.954 2098.84 116.954C2095.36 116.954 2091.92 116.716 2088.51 116.241L2085.13 77.996ZM2094.87 111.847C2097.04 112.44 2099.12 112.737 2101.1 112.737C2103.08 112.737 2104.39 112.619 2105.02 112.381C2106.41 109.61 2107.1 106.819 2107.1 104.008C2107.1 101.157 2106.45 98.7221 2105.14 96.7029C2102.76 97.7719 2099.77 98.7221 2096.17 99.5535L2094.87 111.847ZM2105.2 86.0727C2105.2 84.8057 2104.92 83.519 2104.37 82.2125C2103.81 80.8664 2103.04 79.8568 2102.05 79.1838C2101.14 79.1838 2099.87 79.4213 2098.25 79.8964L2096.53 96.1685C2099.18 95.0995 2101.28 93.6346 2102.82 91.7738C2104.41 89.8734 2105.2 87.973 2105.2 86.0727ZM2141.97 108.462C2143.43 106.561 2144.44 104.502 2145 102.285C2145.55 100.068 2145.83 98.148 2145.83 96.5248C2145.83 94.8619 2145.59 91.655 2145.12 86.9041L2157.82 84.9443L2154.02 115.766L2148.14 116.301L2146.96 105.017H2146.54C2143.61 112.856 2138.94 116.776 2132.53 116.776C2131.58 116.776 2130.78 116.617 2130.15 116.301C2128.13 113.846 2126.74 109.689 2125.99 103.829C2125.24 97.9303 2124.86 92.051 2124.86 86.1914L2136.74 85.3006C2136.03 92.2291 2135.67 97.4156 2135.67 100.86C2135.67 104.304 2135.97 108.006 2136.56 111.965C2138.74 111.49 2140.54 110.322 2141.97 108.462ZM2165.57 95.8715C2165.57 90.8038 2168.24 86.1716 2173.59 81.975L2183.33 88.5075C2178.93 91.3185 2176.73 94.2681 2176.73 97.3562C2176.73 98.9794 2177.63 101.098 2179.41 103.711C2181.23 106.324 2182.14 108.363 2182.14 109.827C2182.14 115.014 2178.58 119.013 2171.45 121.824L2168.84 118.32C2171.96 116.617 2173.53 114.737 2173.53 112.678C2173.53 110.738 2172.2 108.283 2169.55 105.314C2168.56 104.205 2167.65 102.8 2166.82 101.098C2165.99 99.3952 2165.57 97.6531 2165.57 95.8715ZM2194.07 116.301L2191.04 86.9041L2203.75 84.9443L2199.95 115.766L2194.07 116.301ZM2192.88 80.3121C2191.82 79.2036 2191.28 77.897 2191.28 76.3926C2191.28 74.8881 2191.82 73.6014 2192.88 72.5324C2193.99 71.4239 2195.3 70.8696 2196.8 70.8696C2198.31 70.8696 2199.6 71.4239 2200.66 72.5324C2201.77 73.6014 2202.33 74.8881 2202.33 76.3926C2202.33 77.897 2201.77 79.2036 2200.66 80.3121C2199.6 81.3811 2198.31 81.9156 2196.8 81.9156C2195.3 81.9156 2193.99 81.3811 2192.88 80.3121ZM2235.38 84.3504C2236.13 84.3504 2236.86 84.4692 2237.57 84.7068C2239.59 87.1614 2240.98 91.4175 2241.73 97.475C2242.48 103.493 2242.86 109.471 2242.86 115.41L2232.17 116.301C2232.17 107.195 2231.83 98.9003 2231.16 91.4175C2225.89 93.3575 2222.39 101.474 2220.65 115.766L2214.77 116.301L2211.74 86.8447L2224.45 84.8849L2223.14 95.337H2223.68C2225.26 91.8926 2227.06 89.2004 2229.08 87.2604C2231.1 85.3204 2233.2 84.3504 2235.38 84.3504ZM2261.16 83.4002C2270.74 87.2406 2275.53 92.0114 2275.53 97.7125C2275.53 100.682 2274.68 102.84 2272.98 104.186C2271.32 105.492 2268.21 106.145 2263.65 106.145C2260.76 106.145 2258.39 105.928 2256.53 105.492C2255.78 107.353 2255.4 109.293 2255.4 111.312C2257.18 111.55 2259.2 111.668 2261.46 111.668C2265.57 111.668 2269.45 111.015 2273.1 109.709L2274.88 115.469C2271.99 116.38 2268.74 116.835 2265.14 116.835C2258.73 116.835 2254.01 115.667 2251.01 113.331C2250.37 110.52 2250.05 107.868 2250.05 105.373C2250.05 100.385 2251.14 95.8913 2253.32 91.8926C2255.54 87.8939 2258.15 85.0631 2261.16 83.4002ZM2257.72 102.701C2258.23 102.741 2259.52 102.76 2261.58 102.76C2263.67 102.76 2266.07 102.483 2268.76 101.929C2268.88 101.177 2268.94 100.425 2268.94 99.6723C2268.94 97.2968 2268.29 95.0203 2266.98 92.8428C2263.06 95.4558 2259.97 98.7419 2257.72 102.701ZM2282.37 95.8715C2282.37 90.8038 2285.04 86.1716 2290.39 81.975L2300.13 88.5075C2295.73 91.3185 2293.54 94.2681 2293.54 97.3562C2293.54 98.9794 2294.43 101.098 2296.21 103.711C2298.03 106.324 2298.94 108.363 2298.94 109.827C2298.94 115.014 2295.38 119.013 2288.25 121.824L2285.64 118.32C2288.77 116.617 2290.33 114.737 2290.33 112.678C2290.33 110.738 2289 108.283 2286.35 105.314C2285.36 104.205 2284.45 102.8 2283.62 101.098C2282.79 99.3952 2282.37 97.6531 2282.37 95.8715ZM2307.25 95.8715C2307.25 90.8038 2309.92 86.1716 2315.27 81.975L2325.01 88.5075C2320.61 91.3185 2318.42 94.2681 2318.42 97.3562C2318.42 98.9794 2319.31 101.098 2321.09 103.711C2322.91 106.324 2323.82 108.363 2323.82 109.827C2323.82 115.014 2320.26 119.013 2313.13 121.824L2310.52 118.32C2313.65 116.617 2315.21 114.737 2315.21 112.678C2315.21 110.738 2313.88 108.283 2311.23 105.314C2310.24 104.205 2309.33 102.8 2308.5 101.098C2307.67 99.3952 2307.25 97.6531 2307.25 95.8715ZM2367.34 108.462C2368.8 106.561 2369.81 104.502 2370.37 102.285C2370.92 100.068 2371.2 98.148 2371.2 96.5248C2371.2 94.8619 2370.96 91.655 2370.48 86.9041L2383.19 84.9443L2379.39 115.766L2373.51 116.301L2372.33 105.017H2371.91C2368.98 112.856 2364.31 116.776 2357.89 116.776C2356.94 116.776 2356.15 116.617 2355.52 116.301C2353.5 113.846 2352.11 109.689 2351.36 103.829C2350.61 97.9303 2350.23 92.051 2350.23 86.1914L2362.11 85.3006C2361.4 92.2291 2361.04 97.4156 2361.04 100.86C2361.04 104.304 2361.34 108.006 2361.93 111.965C2364.11 111.49 2365.91 110.322 2367.34 108.462ZM2390.94 95.8715C2390.94 90.8038 2393.61 86.1716 2398.96 81.975L2408.7 88.5075C2404.3 91.3185 2402.1 94.2681 2402.1 97.3562C2402.1 98.9794 2402.99 101.098 2404.78 103.711C2406.6 106.324 2407.51 108.363 2407.51 109.827C2407.51 115.014 2403.94 119.013 2396.82 121.824L2394.21 118.32C2397.33 116.617 2398.9 114.737 2398.9 112.678C2398.9 110.738 2397.57 108.283 2394.92 105.314C2393.93 104.205 2393.02 102.8 2392.19 101.098C2391.35 99.3952 2390.94 97.6531 2390.94 95.8715ZM2426.33 83.4002C2435.91 87.2406 2440.7 92.0114 2440.7 97.7125C2440.7 100.682 2439.85 102.84 2438.15 104.186C2436.49 105.492 2433.38 106.145 2428.82 106.145C2425.93 106.145 2423.56 105.928 2421.7 105.492C2420.95 107.353 2420.57 109.293 2420.57 111.312C2422.35 111.55 2424.37 111.668 2426.63 111.668C2430.74 111.668 2434.62 111.015 2438.27 109.709L2440.05 115.469C2437.16 116.38 2433.91 116.835 2430.31 116.835C2423.9 116.835 2419.18 115.667 2416.18 113.331C2415.54 110.52 2415.23 107.868 2415.23 105.373C2415.23 100.385 2416.31 95.8913 2418.49 91.8926C2420.71 87.8939 2423.32 85.0631 2426.33 83.4002ZM2422.89 102.701C2423.4 102.741 2424.69 102.76 2426.75 102.76C2428.84 102.76 2431.24 102.483 2433.93 101.929C2434.05 101.177 2434.11 100.425 2434.11 99.6723C2434.11 97.2968 2433.46 95.0203 2432.15 92.8428C2428.23 95.4558 2425.14 98.7419 2422.89 102.701Z" fill="white"/>
<path d="M2510.82 116.241L2507.43 76.8083L2521.57 75.9175L2517.35 115.647L2510.82 116.241ZM2554.68 84.3504C2555.44 84.3504 2556.17 84.4692 2556.88 84.7068C2558.9 87.1614 2560.29 91.4175 2561.04 97.475C2561.79 103.493 2562.17 109.471 2562.17 115.41L2551.48 116.301C2551.48 107.195 2551.14 98.9003 2550.47 91.4175C2545.2 93.3575 2541.7 101.474 2539.96 115.766L2534.08 116.301L2531.05 86.8447L2543.76 84.8849L2542.45 95.337H2542.99C2544.57 91.8926 2546.37 89.2004 2548.39 87.2604C2550.41 85.3204 2552.51 84.3504 2554.68 84.3504ZM2580.88 84.9443L2584.8 107.69H2585.28L2592.94 85.1225L2597.75 86.429L2586.17 115.529L2581.36 116.301L2568.17 86.9041L2580.88 84.9443ZM2613.58 83.4002C2623.16 87.2406 2627.95 92.0114 2627.95 97.7125C2627.95 100.682 2627.1 102.84 2625.4 104.186C2623.74 105.492 2620.63 106.145 2616.08 106.145C2613.19 106.145 2610.81 105.928 2608.95 105.492C2608.2 107.353 2607.82 109.293 2607.82 111.312C2609.6 111.55 2611.62 111.668 2613.88 111.668C2618 111.668 2621.88 111.015 2625.52 109.709L2627.3 115.469C2624.41 116.38 2621.17 116.835 2617.56 116.835C2611.15 116.835 2606.44 115.667 2603.43 113.331C2602.79 110.52 2602.48 107.868 2602.48 105.373C2602.48 100.385 2603.57 95.8913 2605.74 91.8926C2607.96 87.8939 2610.57 85.0631 2613.58 83.4002ZM2610.14 102.701C2610.65 102.741 2611.94 102.76 2614 102.76C2616.1 102.76 2618.49 102.483 2621.18 101.929C2621.3 101.177 2621.36 100.425 2621.36 99.6723C2621.36 97.2968 2620.71 95.0203 2619.4 92.8428C2615.48 95.4558 2612.4 98.7419 2610.14 102.701ZM2634.8 95.8715C2634.8 90.8038 2637.47 86.1716 2642.81 81.975L2652.55 88.5075C2648.16 91.3185 2645.96 94.2681 2645.96 97.3562C2645.96 98.9794 2646.85 101.098 2648.63 103.711C2650.45 106.324 2651.36 108.363 2651.36 109.827C2651.36 115.014 2647.8 119.013 2640.67 121.824L2638.06 118.32C2641.19 116.617 2642.75 114.737 2642.75 112.678C2642.75 110.738 2641.43 108.283 2638.77 105.314C2637.78 104.205 2636.87 102.8 2636.04 101.098C2635.21 99.3952 2634.8 97.6531 2634.8 95.8715ZM2665.08 116.301L2662.53 92.3083L2657.06 93.0803L2656.71 86.9635L2661.93 86.7259L2661.04 78.4117L2675.83 76.452L2674.64 86.0727L2680.52 85.7757L2680.34 89.7547L2674.05 90.6455L2670.96 115.766L2665.08 116.301ZM2688.87 116.301L2685.84 86.9041L2698.55 84.9443L2694.75 115.766L2688.87 116.301ZM2687.69 80.3121C2686.62 79.2036 2686.08 77.897 2686.08 76.3926C2686.08 74.8881 2686.62 73.6014 2687.69 72.5324C2688.79 71.4239 2690.1 70.8696 2691.61 70.8696C2693.11 70.8696 2694.4 71.4239 2695.47 72.5324C2696.57 73.6014 2697.13 74.8881 2697.13 76.3926C2697.13 77.897 2696.57 79.2036 2695.47 80.3121C2694.4 81.3811 2693.11 81.9156 2691.61 81.9156C2690.1 81.9156 2688.79 81.3811 2687.69 80.3121ZM2730.18 84.3504C2730.93 84.3504 2731.66 84.4692 2732.38 84.7068C2734.39 87.1614 2735.78 91.4175 2736.53 97.475C2737.28 103.493 2737.66 109.471 2737.66 115.41L2726.97 116.301C2726.97 107.195 2726.63 98.9003 2725.96 91.4175C2720.7 93.3575 2717.19 101.474 2715.45 115.766L2709.57 116.301L2706.54 86.8447L2719.25 84.8849L2717.94 95.337H2718.48C2720.06 91.8926 2721.86 89.2004 2723.88 87.2604C2725.9 85.3204 2728 84.3504 2730.18 84.3504ZM2761.48 89.4577C2760.02 89.4577 2758.77 89.7349 2757.74 90.2891C2757.19 92.9814 2756.91 95.7725 2756.91 98.6627C2756.91 101.553 2757.03 104.107 2757.27 106.324C2757.51 108.501 2757.78 109.986 2758.1 110.778C2760 110.421 2762.02 109.135 2764.16 106.918C2765.3 105.73 2766.24 104.027 2766.95 101.81C2767.7 99.5535 2768.08 96.9999 2768.08 94.1493C2768.08 93.6742 2768.04 92.8032 2767.96 91.5363C2766.14 90.1506 2763.98 89.4577 2761.48 89.4577ZM2765.82 128.475C2761.86 128.475 2757.78 127.089 2753.59 124.318L2755.25 121.349C2758.77 122.893 2761.68 123.665 2763.98 123.665C2766.31 123.665 2768.02 123.051 2769.09 121.824C2770.19 120.596 2770.75 118.953 2770.75 116.895C2770.75 116.261 2770.33 111.886 2769.5 103.77H2769.03C2766.1 111.649 2761.11 115.588 2754.06 115.588C2753.11 115.588 2752.32 115.43 2751.69 115.113C2750.22 113.648 2749.03 111.51 2748.12 108.699C2747.25 105.849 2746.82 102.661 2746.82 99.1378C2746.82 94.5848 2747.73 91.2591 2749.55 89.1608C2751.41 87.0229 2754.62 85.9539 2759.17 85.9539C2762.49 85.9539 2765.36 86.7457 2767.78 88.3294L2769.09 86.6071L2780.49 84.8849L2776.39 118.082C2775.99 121.289 2774.89 123.823 2773.06 125.684C2771.24 127.545 2768.83 128.475 2765.82 128.475Z" fill="white"/>
<path d="M2866.37 115.41L2843.15 115.944L2840.36 76.8083L2866.55 75.9769L2866.37 79.9558L2853.84 81.4405L2852.3 93.7336L2864.95 93.6148L2865.25 98.9596L2851.83 97.9501L2850.22 111.193L2866.61 109.293L2866.37 115.41ZM2882.97 116.776C2882.02 116.776 2881.23 116.617 2880.6 116.301C2879.13 114.796 2877.94 112.559 2877.03 109.59C2876.16 106.621 2875.73 103.315 2875.73 99.6723C2875.73 94.9609 2876.64 91.4967 2878.46 89.2796C2880.32 87.0624 2883.53 85.9539 2888.08 85.9539C2890.89 85.9539 2893.68 86.5082 2896.45 87.6167L2895.56 74.8485L2908.27 72.8887L2904.47 115.766L2898.59 116.301L2897.82 106.086H2897.34C2894.29 113.213 2889.5 116.776 2882.97 116.776ZM2890.4 89.5171C2888.93 89.5171 2887.68 89.7942 2886.65 90.3485C2886.1 93.1991 2885.82 96.1487 2885.82 99.1972C2885.82 105.532 2886.22 109.788 2887.01 111.965C2888.95 111.649 2890.99 110.283 2893.13 107.868C2894.24 106.601 2895.15 104.799 2895.86 102.463C2896.61 100.128 2896.99 97.4552 2896.99 94.4462C2896.99 93.8524 2896.95 92.922 2896.87 91.655C2895.09 90.2298 2892.93 89.5171 2890.4 89.5171ZM2933.4 108.462C2934.87 106.561 2935.88 104.502 2936.43 102.285C2936.98 100.068 2937.26 98.148 2937.26 96.5248C2937.26 94.8619 2937.02 91.655 2936.55 86.9041L2949.26 84.9443L2945.46 115.766L2939.58 116.301L2938.39 105.017H2937.97C2935.04 112.856 2930.37 116.776 2923.96 116.776C2923.01 116.776 2922.22 116.617 2921.58 116.301C2919.56 113.846 2918.18 109.689 2917.43 103.829C2916.67 97.9303 2916.3 92.051 2916.3 86.1914L2928.18 85.3006C2927.46 92.2291 2927.11 97.4156 2927.11 100.86C2927.11 104.304 2927.4 108.006 2928 111.965C2930.17 111.49 2931.98 110.322 2933.4 108.462ZM2966.92 111.668C2970.72 111.668 2974.31 111.015 2977.67 109.709L2979.45 115.469C2976.68 116.38 2973.77 116.835 2970.72 116.835C2967.67 116.835 2964.98 116.499 2962.65 115.826C2960.31 115.192 2958.53 114.361 2957.3 113.331C2956.71 110.481 2956.41 107.828 2956.41 105.373C2956.41 100.425 2957.52 95.9309 2959.74 91.8926C2961.99 87.8543 2964.59 85.0235 2967.52 83.4002L2977.79 90.111C2972.8 92.8032 2968.88 96.0101 2966.03 99.7317C2963.18 103.414 2961.75 107.274 2961.75 111.312C2963.42 111.55 2965.14 111.668 2966.92 111.668ZM2988.77 116.776C2988.1 116.776 2987.61 116.756 2987.29 116.716C2985.94 115.806 2984.85 114.46 2984.02 112.678C2983.23 110.857 2982.83 108.976 2982.83 107.036C2982.83 104.502 2983.78 102.661 2985.69 101.513C2987.63 100.365 2991.17 99.7911 2996.32 99.7911C2998.22 99.7911 3000.2 99.9296 3002.25 100.207L3002.14 98.9003C3001.98 97.3166 3001.22 96.0695 2999.88 95.1589C2998.53 94.2087 2996.81 93.7336 2994.71 93.7336C2992.61 93.7336 2990.52 94.3868 2988.42 95.6934L2985.8 87.0822C2989.21 85.6965 2993.09 85.0037 2997.44 85.0037C3001.8 85.0037 3005.24 85.9935 3007.78 87.973C3010.31 89.913 3011.58 92.9616 3011.58 97.1186C3011.58 98.0688 3011.54 98.8211 3011.46 99.3754L3009.8 115.766L3003.92 116.301L3003.03 107.69H3002.55C3001.21 110.54 2999.34 112.777 2996.97 114.4C2994.59 115.984 2991.86 116.776 2988.77 116.776ZM3002.49 102.701L2999.34 102.642C2996.73 102.642 2994.59 102.78 2992.93 103.057C2992.38 104.166 2992.1 105.156 2992.1 106.027C2992.1 106.898 2992.22 107.729 2992.46 108.521C2992.69 109.313 2992.95 109.847 2993.23 110.124C2997.98 109.372 3001.07 106.898 3002.49 102.701ZM3024.17 116.301L3021.62 92.3083L3016.16 93.0803L3015.8 86.9635L3021.03 86.7259L3020.13 78.4117L3034.92 76.452L3033.73 86.0727L3039.61 85.7757L3039.44 89.7547L3033.14 90.6455L3030.05 115.766L3024.17 116.301ZM3047.97 116.301L3044.94 86.9041L3057.65 84.9443L3053.85 115.766L3047.97 116.301ZM3046.78 80.3121C3045.71 79.2036 3045.18 77.897 3045.18 76.3926C3045.18 74.8881 3045.71 73.6014 3046.78 72.5324C3047.89 71.4239 3049.19 70.8696 3050.7 70.8696C3052.2 70.8696 3053.49 71.4239 3054.56 72.5324C3055.67 73.6014 3056.22 74.8881 3056.22 76.3926C3056.22 77.897 3055.67 79.2036 3054.56 80.3121C3053.49 81.3811 3052.2 81.9156 3050.7 81.9156C3049.19 81.9156 3047.89 81.3811 3046.78 80.3121ZM3090.76 104.483C3090.76 108.798 3089.81 111.946 3087.91 113.925C3086.04 115.865 3082.58 116.835 3077.51 116.835C3072.45 116.835 3068.49 115.687 3065.64 113.391C3065.04 110.54 3064.74 107.69 3064.74 104.839C3064.74 101.988 3065.14 99.316 3065.93 96.8217C3066.76 94.2879 3067.79 92.1301 3069.02 90.3485C3071.59 86.7061 3073.89 84.39 3075.91 83.4002C3079.71 85.3402 3083.06 87.973 3085.95 91.2987C3089.15 94.9411 3090.76 99.3358 3090.76 104.483ZM3083.87 102.879C3083.87 99.118 3083.08 95.6736 3081.49 92.5458C3078.21 94.2879 3075.49 96.9405 3073.36 100.504C3071.22 104.067 3070.15 107.67 3070.15 111.312C3071.42 111.55 3073.24 111.668 3075.61 111.668C3077.99 111.668 3080.42 111.253 3082.92 110.421C3083.55 108.006 3083.87 105.492 3083.87 102.879ZM3121.23 84.3504C3121.98 84.3504 3122.71 84.4692 3123.42 84.7068C3125.44 87.1614 3126.83 91.4175 3127.58 97.475C3128.33 103.493 3128.71 109.471 3128.71 115.41L3118.02 116.301C3118.02 107.195 3117.68 98.9003 3117.01 91.4175C3111.74 93.3575 3108.24 101.474 3106.5 115.766L3100.62 116.301L3097.59 86.8447L3110.3 84.8849L3108.99 95.337H3109.53C3111.11 91.8926 3112.91 89.2004 3114.93 87.2604C3116.95 85.3204 3119.05 84.3504 3121.23 84.3504Z" fill="white"/>
<path d="M3190.52 111.075C3194.68 111.075 3198.66 110.362 3202.46 108.937L3204.48 115.35C3201.27 116.34 3198 116.835 3194.68 116.835C3191.35 116.835 3188.38 116.479 3185.77 115.766C3183.2 115.054 3181.22 114.123 3179.83 112.975C3179.16 109.649 3178.82 106.363 3178.82 103.117C3178.82 96.505 3180.07 90.5069 3182.56 85.1225C3185.06 79.738 3187.93 75.9769 3191.18 73.8389L3202.64 81.0842C3197.17 84.5682 3192.84 89.0024 3189.63 94.3868C3186.42 99.7713 3184.82 105.195 3184.82 110.659C3186.52 110.936 3188.42 111.075 3190.52 111.075ZM3233.46 104.483C3233.46 108.798 3232.51 111.946 3230.61 113.925C3228.74 115.865 3225.28 116.835 3220.21 116.835C3215.14 116.835 3211.19 115.687 3208.34 113.391C3207.74 110.54 3207.44 107.69 3207.44 104.839C3207.44 101.988 3207.84 99.316 3208.63 96.8217C3209.46 94.2879 3210.49 92.1301 3211.72 90.3485C3214.29 86.7061 3216.59 84.39 3218.61 83.4002C3222.41 85.3402 3225.76 87.973 3228.65 91.2987C3231.85 94.9411 3233.46 99.3358 3233.46 104.483ZM3226.57 102.879C3226.57 99.118 3225.78 95.6736 3224.19 92.5458C3220.91 94.2879 3218.19 96.9405 3216.06 100.504C3213.92 104.067 3212.85 107.67 3212.85 111.312C3214.12 111.55 3215.94 111.668 3218.31 111.668C3220.69 111.668 3223.12 111.253 3225.62 110.421C3226.25 108.006 3226.57 105.492 3226.57 102.879ZM3263.93 84.3504C3264.68 84.3504 3265.41 84.4692 3266.12 84.7068C3268.14 87.1614 3269.53 91.4175 3270.28 97.475C3271.03 103.493 3271.41 109.471 3271.41 115.41L3260.72 116.301C3260.72 107.195 3260.38 98.9003 3259.71 91.4175C3254.44 93.3575 3250.94 101.474 3249.2 115.766L3243.32 116.301L3240.29 86.8447L3253 84.8849L3251.69 95.337H3252.23C3253.81 91.8926 3255.61 89.2004 3257.63 87.2604C3259.65 85.3204 3261.75 84.3504 3263.93 84.3504ZM3284.6 116.301L3282.05 92.3083L3276.59 93.0803L3276.23 86.9635L3281.45 86.7259L3280.56 78.4117L3295.35 76.452L3294.16 86.0727L3300.04 85.7757L3299.86 89.7547L3293.57 90.6455L3290.48 115.766L3284.6 116.301ZM3309.23 116.776C3308.56 116.776 3308.06 116.756 3307.74 116.716C3306.4 115.806 3305.31 114.46 3304.48 112.678C3303.69 110.857 3303.29 108.976 3303.29 107.036C3303.29 104.502 3304.24 102.661 3306.14 101.513C3308.08 100.365 3311.62 99.7911 3316.77 99.7911C3318.67 99.7911 3320.65 99.9296 3322.71 100.207L3322.59 98.9003C3322.43 97.3166 3321.68 96.0695 3320.33 95.1589C3318.99 94.2087 3317.27 93.7336 3315.17 93.7336C3313.07 93.7336 3310.97 94.3868 3308.87 95.6934L3306.26 87.0822C3309.66 85.6965 3313.54 85.0037 3317.9 85.0037C3322.25 85.0037 3325.7 85.9935 3328.23 87.973C3330.77 89.913 3332.03 92.9616 3332.03 97.1186C3332.03 98.0688 3331.99 98.8211 3331.91 99.3754L3330.25 115.766L3324.37 116.301L3323.48 107.69H3323.01C3321.66 110.54 3319.8 112.777 3317.42 114.4C3315.05 115.984 3312.32 116.776 3309.23 116.776ZM3322.95 102.701L3319.8 102.642C3317.19 102.642 3315.05 102.78 3313.39 103.057C3312.83 104.166 3312.55 105.156 3312.55 106.027C3312.55 106.898 3312.67 107.729 3312.91 108.521C3313.15 109.313 3313.41 109.847 3313.68 110.124C3318.43 109.372 3321.52 106.898 3322.95 102.701ZM3349.14 111.668C3352.94 111.668 3356.52 111.015 3359.89 109.709L3361.67 115.469C3358.9 116.38 3355.99 116.835 3352.94 116.835C3349.89 116.835 3347.2 116.499 3344.87 115.826C3342.53 115.192 3340.75 114.361 3339.52 113.331C3338.93 110.481 3338.63 107.828 3338.63 105.373C3338.63 100.425 3339.74 95.9309 3341.96 91.8926C3344.21 87.8543 3346.8 85.0235 3349.73 83.4002L3360.01 90.111C3355.02 92.8032 3351.1 96.0101 3348.25 99.7317C3345.4 103.414 3343.97 107.274 3343.97 111.312C3345.64 111.55 3347.36 111.668 3349.14 111.668ZM3371.94 116.301L3369.39 92.3083L3363.93 93.0803L3363.57 86.9635L3368.8 86.7259L3367.9 78.4117L3382.69 76.452L3381.5 86.0727L3387.38 85.7757L3387.21 89.7547L3380.91 90.6455L3377.82 115.766L3371.94 116.301ZM3427.32 108.462C3428.78 106.561 3429.79 104.502 3430.35 102.285C3430.9 100.068 3431.18 98.148 3431.18 96.5248C3431.18 94.8619 3430.94 91.655 3430.47 86.9041L3443.18 84.9443L3439.38 115.766L3433.5 116.301L3432.31 105.017H3431.89C3428.96 112.856 3424.29 116.776 3417.88 116.776C3416.93 116.776 3416.14 116.617 3415.5 116.301C3413.48 113.846 3412.1 109.689 3411.34 103.829C3410.59 97.9303 3410.22 92.051 3410.22 86.1914L3422.09 85.3006C3421.38 92.2291 3421.02 97.4156 3421.02 100.86C3421.02 104.304 3421.32 108.006 3421.92 111.965C3424.09 111.49 3425.89 110.322 3427.32 108.462ZM3450.92 95.8715C3450.92 90.8038 3453.59 86.1716 3458.94 81.975L3468.68 88.5075C3464.28 91.3185 3462.09 94.2681 3462.09 97.3562C3462.09 98.9794 3462.98 101.098 3464.76 103.711C3466.58 106.324 3467.49 108.363 3467.49 109.827C3467.49 115.014 3463.93 119.013 3456.8 121.824L3454.19 118.32C3457.32 116.617 3458.88 114.737 3458.88 112.678C3458.88 110.738 3457.55 108.283 3454.9 105.314C3453.91 104.205 3453 102.8 3452.17 101.098C3451.34 99.3952 3450.92 97.6531 3450.92 95.8715Z" fill="white"/>
<rect x="3570.58" y="30.0156" width="296.935" height="128.672" rx="26.3942" fill="white"/>
<path d="M3662.08 112.41L3638.86 112.944L3636.07 73.8083L3662.26 72.9769L3662.08 76.9558L3649.55 78.4405L3648.01 90.7336L3660.66 90.6148L3660.95 95.9596L3647.53 94.9501L3645.93 108.193L3662.32 106.293L3662.08 112.41ZM3694 81.3504C3694.75 81.3504 3695.48 81.4692 3696.2 81.7068C3698.22 84.1614 3699.6 88.4175 3700.35 94.475C3701.11 100.493 3701.48 106.471 3701.48 112.41L3690.79 113.301C3690.79 104.195 3690.46 95.9003 3689.78 88.4175C3684.52 90.3575 3681.01 98.4737 3679.27 112.766L3673.39 113.301L3670.36 83.8447L3683.07 81.8849L3681.77 92.337H3682.3C3683.88 88.8926 3685.69 86.2004 3687.7 84.2604C3689.72 82.3204 3691.82 81.3504 3694 81.3504ZM3728.45 92.8715C3725.76 92.8715 3723.72 93.8217 3722.34 95.7221C3720.95 97.5829 3719.94 101.027 3719.31 106.055L3718.48 112.766L3712.6 113.301L3709.57 83.8447L3722.28 81.8849L3721.09 91.3868H3721.5C3724.67 84.5771 3728.71 80.9545 3733.62 80.519L3731.96 93.1685C3730.49 92.9705 3729.32 92.8715 3728.45 92.8715ZM3762.58 101.483C3762.58 105.798 3761.63 108.946 3759.73 110.925C3757.87 112.865 3754.41 113.835 3749.34 113.835C3744.27 113.835 3740.31 112.687 3737.46 110.391C3736.87 107.54 3736.57 104.69 3736.57 101.839C3736.57 98.9884 3736.97 96.316 3737.76 93.8217C3738.59 91.2879 3739.62 89.1301 3740.85 87.3485C3743.42 83.7061 3745.72 81.39 3747.74 80.4002C3751.54 82.3402 3754.88 84.973 3757.77 88.2987C3760.98 91.9411 3762.58 96.3358 3762.58 101.483ZM3755.7 99.8792C3755.7 96.118 3754.9 92.6736 3753.32 89.5458C3750.03 91.2879 3747.32 93.9405 3745.18 97.5037C3743.05 101.067 3741.98 104.67 3741.98 108.312C3743.24 108.55 3745.07 108.668 3747.44 108.668C3749.82 108.668 3752.25 108.253 3754.75 107.421C3755.38 105.006 3755.7 102.492 3755.7 99.8792ZM3772.74 113.301L3769.72 71.8485L3782.42 69.8887L3778.62 112.766L3772.74 113.301ZM3793.74 113.301L3790.71 71.8485L3803.42 69.8887L3799.62 112.766L3793.74 113.301Z" fill="black"/>
</svg>
