<svg width="4224" height="2745" viewBox="0 0 4224 2745" fill="none" xmlns="http://www.w3.org/2000/svg">
<g clip-path="url(#clip0_1_5)">
<rect width="4223.08" height="2745" rx="32.9928" fill="#181E12"/>
<rect width="4223.08" height="207.855" fill="#2F2F2F"/>
<circle cx="98.9784" cy="102.278" r="32.9928" fill="#666666"/>
<circle cx="194.657" cy="102.278" r="32.9928" fill="#666666"/>
<circle cx="290.337" cy="102.278" r="32.9928" fill="#666666"/>
<path d="M190.593 906.796C178.064 906.796 171.8 898.139 171.8 880.824C171.8 871.815 173.56 862.313 177.079 852.319C180.317 842.746 184.047 835.849 188.27 831.625C190.945 828.951 193.127 827.614 194.816 827.614C196.646 827.614 198.054 829.373 199.039 832.892C200.024 836.271 200.939 839.79 201.784 843.45C206.289 859.639 213.468 872.519 223.322 882.091C235.709 870.548 248.801 854.782 262.596 834.793L253.728 833.737C250.068 832.892 248.238 831.485 248.238 829.514C248.238 827.121 249.927 826.135 253.305 826.558C254.854 826.839 256.754 827.05 259.007 827.191C261.4 827.332 264.145 827.473 267.242 827.614C270.761 822.405 273.717 817.76 276.11 813.677C278.644 809.595 280.615 806.005 282.022 802.909C284.697 796.855 288.639 791.295 293.847 786.227C298.492 782.004 302.223 779.893 305.038 779.893C306.587 779.893 307.361 780.737 307.361 782.427C307.361 785.242 305.32 789.747 301.237 795.94C298 801.149 294.48 806.428 290.68 811.777C286.879 816.985 282.937 822.335 278.855 827.825C286.457 827.402 294.058 826.417 301.66 824.869C309.261 823.32 316.3 821.138 322.775 818.323C329.25 815.367 334.529 811.636 338.612 807.132C342.835 802.627 345.228 797.137 345.791 790.662C346.072 786.579 345.157 782.708 343.046 779.048C340.934 775.388 337.837 772.01 333.755 768.913C324.605 761.593 311.936 757.229 295.747 755.821C291.806 755.399 287.653 755.188 283.289 755.188C261.47 755.188 241.481 759.622 223.322 768.49C205.303 777.218 196.294 786.439 196.294 796.152C196.294 801.501 199.813 806.217 206.852 810.299C209.667 811.425 211.075 812.27 211.075 812.833C211.075 813.537 209.949 813.889 207.696 813.889C203.614 813.889 200.306 813.396 197.772 812.41C186.933 807.061 181.513 800.656 181.513 793.195C181.513 782.638 190.734 772.995 209.174 764.267C228.741 755.117 251.475 750.542 277.377 750.542C282.163 750.542 287.935 750.824 294.692 751.387C301.449 751.809 308.417 752.724 315.596 754.132C322.775 755.54 329.462 757.722 335.655 760.678C341.99 763.493 347.128 767.294 351.07 772.08C355.011 776.866 356.982 782.919 356.982 790.239C356.982 796.011 355.293 801.149 351.914 805.654C348.677 810.017 344.313 813.818 338.823 817.056C333.474 820.294 327.491 823.039 320.875 825.291C314.399 827.402 307.854 829.092 301.237 830.359C294.762 831.485 288.85 832.189 283.5 832.47C290.539 832.892 298 833.455 305.883 834.159C313.766 834.863 321.156 836.06 328.054 837.749C335.092 839.297 340.794 841.62 345.157 844.717C349.662 847.814 351.914 852.037 351.914 857.386C351.914 863.017 350.507 868.507 347.691 873.856C345.017 879.205 340.653 884.344 334.6 889.27C320.382 900.954 301.519 906.796 278.01 906.796C273.084 906.796 267.945 906.515 262.596 905.952C257.388 905.389 251.968 904.544 246.337 903.418C237.328 901.447 228.812 896.942 220.788 889.904C207.978 901.165 197.913 906.796 190.593 906.796ZM275.899 900.884C294.199 900.884 309.754 896.027 322.564 886.314C333.544 877.868 339.034 869.422 339.034 860.976C339.034 856.19 337.063 852.178 333.122 848.94C329.321 845.702 324.464 843.169 318.552 841.339C312.78 839.509 306.727 838.171 300.393 837.327C294.199 836.482 288.568 835.989 283.5 835.849C278.433 835.708 274.914 835.708 272.943 835.849C268.016 842.324 261.681 849.644 253.939 857.809C246.197 865.973 236.976 874.982 226.278 884.836C233.175 891.171 240.918 895.394 249.505 897.505C258.373 899.758 267.171 900.884 275.899 900.884ZM191.86 900.25C198.898 900.25 207.555 895.816 217.832 886.948C206.289 876.672 198.265 865.621 193.76 853.797C192.915 851.685 192 850.629 191.015 850.629C189.326 850.629 187.285 853.515 184.892 859.287C183.062 864.073 181.584 869.422 180.457 875.334C180.035 877.587 179.824 879.909 179.824 882.302C179.824 894.268 183.836 900.25 191.86 900.25ZM411.115 896.872C408.3 896.872 405.695 895.957 403.302 894.127C401.05 892.297 399.713 890.537 399.29 888.848C398.868 886.877 401.472 879.839 407.103 867.733L402.246 874.701C400.135 877.798 398.023 880.543 395.912 882.936C393.8 885.329 391.83 887.44 390 889.27C384.65 894.338 380.146 896.45 376.486 895.605C368.04 893.634 363.816 888.848 363.816 881.247C363.816 875.194 366.702 867.451 372.474 858.02C374.304 855.204 376.626 852.389 379.442 849.574C382.257 846.758 385.495 844.013 389.155 841.339C398.586 834.441 407.666 830.992 416.394 830.992C421.743 830.992 426.811 832.4 431.597 835.215C433.145 836.341 433.92 837.538 433.92 838.805C433.92 839.79 433.638 840.283 433.075 840.283C432.934 840.283 432.793 840.212 432.653 840.072C429.696 836.834 425.755 835.215 420.828 835.215C415.056 835.215 408.792 837.397 402.035 841.761C395.278 846.125 389.225 851.967 383.876 859.287C376.275 869.844 372.474 878.431 372.474 885.047C372.474 888.848 373.811 891.241 376.486 892.227C379.864 893.634 387.043 887.37 398.023 873.434C402.528 867.944 406.258 863.017 409.215 858.653C412.311 854.289 414.775 850.559 416.605 847.462C417.45 845.914 418.998 845.139 421.25 845.139C425.473 845.139 427.585 846.406 427.585 848.94C427.585 849.362 427.515 849.644 427.374 849.785C415.127 869.211 409.003 882.373 409.003 889.27C409.003 890.96 409.496 891.875 410.481 892.015C413.438 892.86 418.365 890.678 425.262 885.47C433.568 879.276 441.38 871.041 448.7 860.765C450.249 858.653 451.656 857.597 452.923 857.597C453.346 857.597 453.557 857.738 453.557 858.02C453.557 858.724 452.923 860.061 451.656 862.032C448.7 866.677 445.392 871.041 441.732 875.123C438.213 879.205 434.271 883.006 429.908 886.525C423.714 891.734 418.646 894.972 414.705 896.239C413.719 896.661 412.523 896.872 411.115 896.872ZM485.093 896.661C481.996 896.942 479.04 896.168 476.225 894.338C473.409 892.367 472.001 890.185 472.001 887.792C472.001 883.429 476.154 875.053 484.46 862.665C493.61 849.01 498.185 841.127 498.185 839.016C498.185 837.749 497.551 837.045 496.284 836.904C492.202 837.186 485.867 841.268 477.28 849.151C465.033 860.554 453.561 876.038 442.862 895.605C442.581 895.887 441.806 896.027 440.54 896.027C434.486 896.027 431.741 895.183 432.305 893.494C433.853 889.411 436.528 883.288 440.328 875.123C444.27 866.959 449.338 856.682 455.531 844.295C459.755 835.989 464.048 831.837 468.412 831.837C469.82 831.837 470.735 832.189 471.157 832.892C471.438 833.315 468.482 839.368 462.288 851.052C459.332 856.682 457.01 861.187 455.32 864.565C453.631 867.803 452.435 869.915 451.731 870.9C454.124 868.507 456.939 865.551 460.177 862.032C463.555 858.512 467.426 854.43 471.79 849.785C478.688 842.042 486.29 836.271 494.595 832.47C496.566 831.625 498.818 831.203 501.352 831.203C507.123 831.203 510.009 833.315 510.009 837.538C510.009 840.212 508.672 843.38 505.997 847.04C490.794 868.296 483.193 882.584 483.193 889.904C483.193 891.452 483.685 892.438 484.671 892.86C486.923 893.845 492.483 891.523 501.352 885.892C511.769 879.135 520.637 870.759 527.957 860.765C529.506 858.653 530.913 857.597 532.18 857.597C532.603 857.597 532.814 857.738 532.814 858.02C532.814 858.724 532.18 860.061 530.913 862.032C524.72 871.745 516.133 880.332 505.153 887.792C495.299 894.268 488.612 897.224 485.093 896.661ZM577.352 912.709C573.552 912.709 569.892 911.371 566.372 908.697C555.815 900.391 547.65 884.836 541.879 862.032C533.292 871.885 525.268 883.077 517.807 895.605C517.525 895.887 516.751 896.027 515.484 896.027C509.29 896.027 506.475 895.183 507.038 893.494C509.854 885.892 513.091 877.939 516.751 869.633C520.552 861.187 524.775 852.459 529.42 843.45C544.905 813.185 556.659 795.096 564.683 789.184C566.372 787.917 568.695 787.283 571.651 787.283C576.578 787.283 579.042 788.269 579.042 790.239C579.042 790.662 578.619 791.225 577.775 791.929C557.926 806.709 541.175 832.47 527.52 869.211L540.612 856.542C540.049 854.571 539.556 852.67 539.134 850.84C538.852 849.01 538.711 847.251 538.711 845.562C538.711 844.154 539.274 842.957 540.4 841.972C541.527 840.846 542.723 840.283 543.99 840.283C544.975 840.283 545.82 840.846 546.524 841.972C547.228 843.239 549.128 844.154 552.225 844.717C556.589 840.635 560.53 837.256 564.05 834.582C567.569 831.766 570.736 829.655 573.552 828.247C578.479 825.713 582.35 824.446 585.165 824.446C589.107 824.446 591.077 826.91 591.077 831.837C591.077 835.919 588.684 839.649 583.898 843.028C579.112 846.406 573.481 848.659 567.006 849.785C564.754 850.207 562.22 850.418 559.404 850.418C558.419 850.418 557.434 850.418 556.448 850.418C555.604 850.277 554.618 850.137 553.492 849.996L550.747 852.53C551.873 859.146 552.929 864.917 553.914 869.844C554.9 874.63 555.885 878.572 556.87 881.669C560.53 893.775 565.317 902.08 571.229 906.585C573.481 908.415 576.085 909.33 579.042 909.33C584.813 909.33 588.825 907.007 591.077 902.362C591.64 900.954 592.415 900.11 593.4 899.828C594.245 899.406 594.667 899.617 594.667 900.462C594.667 901.025 594.456 901.658 594.034 902.362C590.514 909.26 584.954 912.709 577.352 912.709ZM558.771 845.35C560.179 845.35 561.586 845.139 562.994 844.717C565.387 844.013 567.78 843.028 570.173 841.761C572.566 840.494 574.959 839.086 577.352 837.538C582.139 834.441 584.532 832.118 584.532 830.57C584.532 830.147 584.32 829.936 583.898 829.936C580.801 829.936 572.637 834.863 559.404 844.717L558.771 845.35ZM622.552 820.434C620.3 820.716 617.837 820.434 615.162 819.59C612.628 818.745 611.361 817.689 611.361 816.422C611.361 815.578 611.643 814.733 612.206 813.889C612.769 812.903 613.473 811.918 614.317 810.932C616.711 807.976 618.118 806.146 618.541 805.442C618.963 804.598 619.737 804.175 620.863 804.175C624.101 804.175 626.635 805.724 628.465 808.821C628.606 808.962 628.676 809.243 628.676 809.665C628.676 810.932 627.972 812.762 626.564 815.155C624.734 818.534 623.397 820.294 622.552 820.434ZM590.668 896.661C582.504 894.831 578.421 891.593 578.421 886.948C578.421 884.695 581.166 876.742 586.656 863.087C588.205 860.413 590.246 856.542 592.78 851.474C595.454 846.265 598.762 839.931 602.704 832.47C603.408 831.344 604.956 830.781 607.349 830.781C609.461 830.781 611.502 831.133 613.473 831.837C615.584 832.4 616.429 832.963 616.007 833.526C597.425 859.85 588.134 878.079 588.134 888.215C588.134 891.171 589.12 892.649 591.091 892.649C594.891 892.649 600.874 889.974 609.039 884.625C618.752 878.009 626.916 870.055 633.532 860.765C634.94 858.512 636.348 857.386 637.756 857.386C638.178 857.386 638.389 857.597 638.389 858.02C638.389 858.724 637.756 860.061 636.489 862.032C630.295 871.745 621.708 880.332 610.728 887.792C600.874 894.549 594.187 897.505 590.668 896.661ZM673.977 896.661C670.88 896.942 667.924 896.168 665.108 894.338C662.293 892.367 660.885 890.185 660.885 887.792C660.885 883.429 665.038 875.053 673.343 862.665C682.493 849.01 687.068 841.127 687.068 839.016C687.068 837.749 686.435 837.045 685.168 836.904C681.086 837.186 674.751 841.268 666.164 849.151C653.917 860.554 642.444 876.038 631.746 895.605C631.464 895.887 630.69 896.027 629.423 896.027C623.37 896.027 620.625 895.183 621.188 893.494C622.737 889.411 625.411 883.288 629.212 875.123C633.154 866.959 638.221 856.682 644.415 844.295C648.638 835.989 652.932 831.837 657.296 831.837C658.703 831.837 659.618 832.189 660.041 832.892C660.322 833.315 657.366 839.368 651.172 851.052C648.216 856.682 645.893 861.187 644.204 864.565C642.515 867.803 641.318 869.915 640.614 870.9C643.007 868.507 645.823 865.551 649.061 862.032C652.439 858.512 656.31 854.43 660.674 849.785C667.572 842.042 675.173 836.271 683.479 832.47C685.449 831.625 687.702 831.203 690.236 831.203C696.007 831.203 698.893 833.315 698.893 837.538C698.893 840.212 697.556 843.38 694.881 847.04C679.678 868.296 672.076 882.584 672.076 889.904C672.076 891.452 672.569 892.438 673.554 892.86C675.807 893.845 681.367 891.523 690.236 885.892C700.652 879.135 709.521 870.759 716.841 860.765C718.389 858.653 719.797 857.597 721.064 857.597C721.486 857.597 721.697 857.738 721.697 858.02C721.697 858.724 721.064 860.061 719.797 862.032C713.603 871.745 705.016 880.332 694.036 887.792C684.182 894.268 677.496 897.224 673.977 896.661ZM696.133 959.585C690.784 959.585 688.109 956.91 688.109 951.561C688.109 947.197 690.01 941.989 693.81 935.935C696.203 932.135 699.23 928.052 702.89 923.689C706.691 919.465 711.195 914.961 716.404 910.175C725.695 901.165 735.548 893.353 745.965 886.737C747.232 883.64 748.64 879.839 750.188 875.334C751.737 870.83 753.496 865.48 755.467 859.287C755.045 860.272 753.496 862.313 750.822 865.41C748.288 868.366 744.558 872.519 739.631 877.868C727.806 890.96 719.43 896.872 714.503 895.605C706.902 893.634 703.101 889.411 703.101 882.936C703.101 876.601 706.831 868.296 714.292 858.02C716.404 855.204 719.008 852.389 722.105 849.574C725.202 846.758 728.721 844.013 732.663 841.339C742.657 834.441 752.089 830.992 760.957 830.992C766.447 830.992 771.445 832.4 775.949 835.215C777.216 836.06 777.85 837.115 777.85 838.382C777.85 839.649 777.568 840.283 777.005 840.283C776.864 840.283 776.723 840.212 776.583 840.072C773.767 836.834 769.896 835.215 764.969 835.215C759.198 835.215 752.722 837.397 745.543 841.761C738.364 846.125 731.748 851.967 725.695 859.287C716.263 870.83 711.547 879.839 711.547 886.314C711.547 889.27 712.673 891.241 714.926 892.227C718.023 893.494 725.835 887.229 738.364 873.434C743.291 867.944 747.514 863.017 751.033 858.653C754.693 854.289 757.579 850.559 759.69 847.462C760.676 846.054 762.083 845.35 763.913 845.35C767.292 845.35 768.981 846.617 768.981 849.151C768.981 849.714 768.77 850.348 768.348 851.052C767.362 853.867 766.025 857.668 764.336 862.454C762.646 867.099 760.605 872.73 758.212 879.346C762.717 876.672 766.306 875.334 768.981 875.334C770.107 875.334 770.67 875.616 770.67 876.179C770.67 877.587 768.911 878.924 765.391 880.191C763.984 880.754 762.435 881.387 760.746 882.091C759.198 882.795 757.508 883.64 755.678 884.625C745.825 909.119 733.93 929.319 719.993 945.226C711.547 954.799 703.594 959.585 696.133 959.585ZM700.567 955.15C703.242 955.15 706.48 952.969 710.28 948.605C722.809 934.528 733.789 916.087 743.22 893.282C724.498 907.219 710.562 921.718 701.412 936.78C698.315 941.707 696.766 946.071 696.766 949.872C696.766 953.391 698.033 955.15 700.567 955.15ZM834.069 904.896C828.016 904.896 824.99 901.165 824.99 893.705C824.99 887.511 826.89 879.135 830.691 868.577C831.395 866.325 833.013 862.243 835.547 856.33C838.081 850.277 841.46 842.324 845.683 832.47L836.603 833.948C834.773 834.23 833.295 834.511 832.169 834.793C831.043 834.934 830.198 834.934 829.635 834.793C829.213 834.511 829.002 834.089 829.002 833.526C829.002 830.429 829.635 828.74 830.902 828.458L848.639 825.924C850.469 822.827 852.651 819.238 855.185 815.155C857.718 810.932 860.675 806.217 864.053 801.008C868.417 795.237 872.499 791.225 876.3 788.972C878.13 788.128 880.312 787.424 882.846 786.861C885.52 786.157 888.617 785.805 892.137 785.805C897.486 785.805 901.075 787.917 902.905 792.14C903.469 793.407 903.75 794.744 903.75 796.152C903.75 798.967 902.694 800.375 900.583 800.375C898.19 800.375 896.219 798.334 894.67 794.251C893.826 791.858 892.066 790.662 889.392 790.662C885.45 790.662 881.931 792.421 878.834 795.94C877.848 796.926 876.582 798.474 875.033 800.586C873.625 802.697 871.795 805.372 869.543 808.61C867.15 812.129 865.109 815.296 863.42 818.112C861.871 820.786 860.604 823.109 859.619 825.08C860.041 824.939 860.956 824.798 862.364 824.657C863.772 824.517 865.602 824.376 867.854 824.235C869.543 824.094 871.162 824.024 872.71 824.024C874.259 823.883 875.737 823.813 877.145 823.813C883.057 823.813 885.872 824.094 885.591 824.657C884.183 825.924 874.54 828.106 856.663 831.203C852.299 838.805 847.442 849.222 842.093 862.454C835.336 878.642 831.958 890.115 831.958 896.872C831.958 899.547 832.662 901.236 834.069 901.94C835.618 902.784 836.392 903.277 836.392 903.418C836.392 904.403 835.618 904.896 834.069 904.896ZM884.845 896.872C874.569 896.872 869.431 890.537 869.431 877.868C869.431 865.199 874.499 853.093 884.634 841.55C884.775 841.409 884.704 840.916 884.423 840.072C884.141 839.086 884.001 838.382 884.001 837.96C884.001 837.115 884.282 836.482 884.845 836.06C889.772 832.118 895.544 830.147 902.16 830.147C903.99 830.147 905.468 830.499 906.594 831.203C908.002 831.766 909.339 832.329 910.606 832.892C911.873 833.455 913.069 834.089 914.196 834.793C919.545 838.03 923.275 841.409 925.387 844.928C928.906 844.787 931.862 844.647 934.255 844.506C936.648 844.365 938.478 844.224 939.745 844.084H940.59C941.857 844.084 942.49 844.576 942.49 845.562C942.49 845.843 942.209 846.054 941.646 846.195C940.097 846.477 938.056 846.829 935.522 847.251C933.129 847.673 930.173 848.095 926.654 848.518C927.076 849.503 927.287 850.629 927.287 851.896C927.287 852.882 927.217 853.585 927.076 854.008C924.964 865.41 919.404 875.405 910.395 883.992C901.667 892.579 893.151 896.872 884.845 896.872ZM920.319 844.928C918.067 841.409 913.632 839.649 907.016 839.649C901.949 839.649 898.641 840.212 897.092 841.339C896.67 841.479 896.247 841.761 895.825 842.183C895.403 842.605 894.91 843.098 894.347 843.661C902.23 844.647 910.887 845.069 920.319 844.928ZM885.479 893.494C891.672 893.494 898.781 889.059 906.805 880.191C914.97 871.322 919.826 862.735 921.375 854.43C921.516 853.726 921.586 853.163 921.586 852.741C921.727 852.178 921.797 851.685 921.797 851.263C921.797 850.418 921.656 849.574 921.375 848.729C918.7 848.87 915.955 848.94 913.14 848.94C910.324 848.94 907.509 848.94 904.694 848.94C901.878 848.94 899.274 848.94 896.881 848.94C894.629 848.94 892.587 848.87 890.757 848.729C885.127 856.33 881.607 862.454 880.2 867.099C878.511 872.308 877.666 877.305 877.666 882.091C877.666 889.693 880.27 893.494 885.479 893.494ZM929.71 897.083C927.74 897.083 926.754 896.45 926.754 895.183C926.754 895.042 926.895 894.549 927.177 893.705C933.793 881.035 941.605 862.947 950.615 839.438C951.6 836.904 953.289 834.722 955.682 832.892C958.075 830.922 960.117 829.936 961.806 829.936C963.636 829.936 964.41 830.922 964.128 832.892C962.721 835.849 961.032 839.649 959.061 844.295C957.09 848.94 954.767 854.36 952.093 860.554C956.034 855.345 961.876 849.503 969.618 843.028C973.56 839.79 976.938 837.115 979.754 835.004C982.71 832.892 985.173 831.344 987.144 830.359C989.115 829.373 991.297 828.88 993.69 828.88C996.505 828.88 998.898 829.584 1000.87 830.992C1002.84 832.4 1003.83 834.019 1003.83 835.849C1003.83 836.975 1003.26 838.242 1002.14 839.649C1001.15 840.916 1000.1 841.55 998.969 841.55C998.406 841.55 997.209 840.987 995.379 839.86C993.69 838.594 991.86 837.96 989.889 837.96C987.778 837.96 985.314 838.594 982.499 839.86C964.621 847.884 949.207 865.973 936.256 894.127C935.412 896.098 933.23 897.083 929.71 897.083ZM1079.84 896.872C1077.02 896.872 1074.42 895.957 1072.02 894.127C1069.77 892.297 1068.44 890.537 1068.01 888.848C1067.59 886.877 1070.19 879.839 1075.83 867.733L1070.97 874.701C1068.86 877.798 1066.75 880.543 1064.63 882.936C1062.52 885.329 1060.55 887.44 1058.72 889.27C1053.37 894.338 1048.87 896.45 1045.21 895.605C1036.76 893.634 1032.54 888.848 1032.54 881.247C1032.54 875.194 1035.42 867.451 1041.2 858.02C1043.03 855.204 1045.35 852.389 1048.16 849.574C1050.98 846.758 1054.22 844.013 1057.88 841.339C1067.31 834.441 1076.39 830.992 1085.12 830.992C1090.47 830.992 1095.53 832.4 1100.32 835.215C1101.87 836.341 1102.64 837.538 1102.64 838.805C1102.64 839.79 1102.36 840.283 1101.8 840.283C1101.66 840.283 1101.52 840.212 1101.38 840.072C1098.42 836.834 1094.48 835.215 1089.55 835.215C1083.78 835.215 1077.51 837.397 1070.76 841.761C1064 846.125 1057.95 851.967 1052.6 859.287C1045 869.844 1041.2 878.431 1041.2 885.047C1041.2 888.848 1042.53 891.241 1045.21 892.227C1048.59 893.634 1055.77 887.37 1066.75 873.434C1071.25 867.944 1074.98 863.017 1077.94 858.653C1081.03 854.289 1083.5 850.559 1085.33 847.462C1086.17 845.914 1087.72 845.139 1089.97 845.139C1094.2 845.139 1096.31 846.406 1096.31 848.94C1096.31 849.362 1096.24 849.644 1096.1 849.785C1083.85 869.211 1077.73 882.373 1077.73 889.27C1077.73 890.96 1078.22 891.875 1079.2 892.015C1082.16 892.86 1087.09 890.678 1093.98 885.47C1102.29 879.276 1110.1 871.041 1117.42 860.765C1118.97 858.653 1120.38 857.597 1121.65 857.597C1122.07 857.597 1122.28 857.738 1122.28 858.02C1122.28 858.724 1121.65 860.061 1120.38 862.032C1117.42 866.677 1114.11 871.041 1110.45 875.123C1106.94 879.205 1102.99 883.006 1098.63 886.525C1092.44 891.734 1087.37 894.972 1083.43 896.239C1082.44 896.661 1081.25 896.872 1079.84 896.872ZM1158.13 897.928C1152.64 897.928 1148.42 895.605 1145.46 890.96C1145.32 890.819 1145.25 890.326 1145.25 889.482C1145.25 886.103 1147.43 879.135 1151.79 868.577C1153.77 863.791 1155.74 859.287 1157.71 855.064C1159.82 850.7 1161.93 846.547 1164.04 842.605C1175.87 820.786 1186.56 803.542 1196.14 790.873C1198.39 788.057 1202.68 786.931 1209.02 787.494C1210.43 787.635 1211.13 788.269 1211.13 789.395C1211.13 790.943 1210.64 791.999 1209.65 792.562C1198.11 801.43 1182.69 824.798 1163.41 862.665C1164.11 861.961 1165.66 860.413 1168.05 858.02C1170.45 855.627 1173.83 852.319 1178.19 848.095C1189.17 837.538 1197.12 832.259 1202.05 832.259C1203.03 832.54 1204.37 832.822 1206.06 833.104C1207.75 833.244 1209.72 833.455 1211.97 833.737C1214.51 833.737 1215.77 835.426 1215.77 838.805C1215.77 848.236 1210.28 859.427 1199.3 872.378C1193.67 878.994 1187.27 884.695 1180.09 889.482C1171.78 895.112 1164.46 897.928 1158.13 897.928ZM1155.6 891.171C1159.96 891.171 1165.8 888.778 1173.12 883.992C1176.92 881.599 1180.37 878.994 1183.47 876.179C1186.56 873.364 1189.24 870.407 1191.49 867.31C1200.78 854.782 1205.43 845.773 1205.43 840.283C1205.43 838.171 1204.51 837.115 1202.68 837.115C1197.47 837.115 1187.48 844.365 1172.7 858.864C1158.9 872.941 1152.01 882.654 1152.01 888.004C1152.01 890.115 1153.2 891.171 1155.6 891.171ZM1228.71 896.239C1224.63 896.239 1221.04 895.253 1217.94 893.282C1213.86 890.467 1211.82 886.385 1211.82 881.035C1211.82 875.264 1214.28 868.225 1219.21 859.92C1225.83 849.081 1235.54 839.579 1248.35 831.414C1251.59 829.303 1254.82 828.247 1258.06 828.247C1262.28 828.247 1265.31 829.584 1267.14 832.259C1268.27 833.807 1268.83 835.567 1268.83 837.538C1268.83 843.45 1264.04 849.925 1254.47 856.964C1251.66 858.935 1248.63 860.765 1245.39 862.454C1242.3 864.002 1238.92 865.129 1235.26 865.832L1226.18 867.733C1222.8 873.786 1221.11 878.854 1221.11 882.936C1221.11 888.567 1224.42 891.382 1231.03 891.382C1236.24 891.382 1242.58 889.2 1250.04 884.836C1260.03 879.065 1268.62 871.041 1275.8 860.765C1276.92 859.075 1277.98 858.231 1278.97 858.231C1279.39 858.231 1279.6 858.512 1279.6 859.075C1279.6 859.779 1279.11 860.835 1278.12 862.243C1264.47 882.795 1249.05 894.057 1231.88 896.027C1231.32 896.168 1230.75 896.239 1230.19 896.239C1229.77 896.239 1229.27 896.239 1228.71 896.239ZM1228.71 864.143C1232.65 864.143 1237.72 862.384 1243.91 858.864C1252.64 853.937 1258.77 847.603 1262.28 839.86C1263.27 837.89 1263.76 836.271 1263.76 835.004C1263.76 833.737 1263.27 833.104 1262.28 833.104C1260.45 833.104 1256.72 835.356 1251.09 839.86C1247.01 843.38 1243 847.18 1239.06 851.263C1235.26 855.204 1231.6 859.427 1228.08 863.932C1227.94 864.073 1228.15 864.143 1228.71 864.143ZM1286.35 898.139C1275.51 895.746 1270.09 890.819 1270.09 883.358C1270.09 881.247 1270.44 878.783 1271.14 875.968C1271.85 873.012 1272.97 869.774 1274.52 866.255L1292.47 825.924C1290.36 826.206 1288.04 826.487 1285.5 826.769C1282.97 827.05 1280.15 827.332 1277.06 827.614C1276.49 827.614 1276.21 827.121 1276.21 826.135C1276.21 824.165 1276.56 823.039 1277.27 822.757L1295 820.223L1308.73 792.351C1310 789.817 1313.94 788.55 1320.55 788.55C1323.65 788.55 1324.99 788.902 1324.56 789.606C1321.47 794.533 1318.3 799.53 1315.06 804.598C1311.97 809.525 1308.87 814.452 1305.77 819.379C1306.19 819.238 1307.11 819.097 1308.52 818.956C1309.92 818.815 1311.75 818.675 1314.01 818.534C1315.7 818.393 1317.32 818.323 1318.86 818.323C1320.41 818.182 1321.89 818.112 1323.3 818.112C1329.21 818.112 1332.03 818.393 1331.74 818.956C1330.76 819.942 1321.19 821.842 1303.03 824.657C1287.68 853.656 1280.01 874.138 1280.01 886.103C1280.01 890.467 1281.28 893.071 1283.81 893.916C1285.78 894.479 1290.78 891.875 1298.8 886.103C1303.45 882.725 1307.67 879.065 1311.47 875.123C1315.27 871.041 1318.72 866.747 1321.82 862.243C1322.81 860.835 1323.72 860.131 1324.56 860.131C1325.13 860.131 1325.41 860.413 1325.41 860.976C1325.41 861.539 1325.06 862.384 1324.35 863.51C1319 872.097 1311.9 880.191 1303.03 887.792C1294.44 895.253 1288.88 898.702 1286.35 898.139ZM1333.77 898.139C1322.93 895.746 1317.51 890.819 1317.51 883.358C1317.51 881.247 1317.87 878.783 1318.57 875.968C1319.27 873.012 1320.4 869.774 1321.95 866.255L1339.9 825.924C1337.79 826.206 1335.46 826.487 1332.93 826.769C1330.39 827.05 1327.58 827.332 1324.48 827.614C1323.92 827.614 1323.64 827.121 1323.64 826.135C1323.64 824.165 1323.99 823.039 1324.69 822.757L1342.43 820.223L1356.16 792.351C1357.42 789.817 1361.36 788.55 1367.98 788.55C1371.08 788.55 1372.41 788.902 1371.99 789.606C1368.9 794.533 1365.73 799.53 1362.49 804.598C1359.39 809.525 1356.3 814.452 1353.2 819.379C1353.62 819.238 1354.54 819.097 1355.94 818.956C1357.35 818.815 1359.18 818.675 1361.43 818.534C1363.12 818.393 1364.74 818.323 1366.29 818.323C1367.84 818.182 1369.32 818.112 1370.73 818.112C1376.64 818.112 1379.45 818.393 1379.17 818.956C1378.19 819.942 1368.61 821.842 1350.45 824.657C1335.11 853.656 1327.44 874.138 1327.44 886.103C1327.44 890.467 1328.71 893.071 1331.24 893.916C1333.21 894.479 1338.21 891.875 1346.23 886.103C1350.88 882.725 1355.1 879.065 1358.9 875.123C1362.7 871.041 1366.15 866.747 1369.25 862.243C1370.23 860.835 1371.15 860.131 1371.99 860.131C1372.56 860.131 1372.84 860.413 1372.84 860.976C1372.84 861.539 1372.48 862.384 1371.78 863.51C1366.43 872.097 1359.32 880.191 1350.45 887.792C1341.87 895.253 1336.31 898.702 1333.77 898.139ZM1376.77 896.239C1372.68 896.239 1369.09 895.253 1366 893.282C1361.91 890.467 1359.87 886.385 1359.87 881.035C1359.87 875.264 1362.34 868.225 1367.26 859.92C1373.88 849.081 1383.59 839.579 1396.4 831.414C1399.64 829.303 1402.88 828.247 1406.12 828.247C1410.34 828.247 1413.37 829.584 1415.2 832.259C1416.32 833.807 1416.89 835.567 1416.89 837.538C1416.89 843.45 1412.1 849.925 1402.53 856.964C1399.71 858.935 1396.68 860.765 1393.45 862.454C1390.35 864.002 1386.97 865.129 1383.31 865.832L1374.23 867.733C1370.85 873.786 1369.16 878.854 1369.16 882.936C1369.16 888.567 1372.47 891.382 1379.09 891.382C1384.3 891.382 1390.63 889.2 1398.09 884.836C1408.09 879.065 1416.67 871.041 1423.85 860.765C1424.98 859.075 1426.04 858.231 1427.02 858.231C1427.44 858.231 1427.65 858.512 1427.65 859.075C1427.65 859.779 1427.16 860.835 1426.18 862.243C1412.52 882.795 1397.11 894.057 1379.93 896.027C1379.37 896.168 1378.81 896.239 1378.24 896.239C1377.82 896.239 1377.33 896.239 1376.77 896.239ZM1376.77 864.143C1380.71 864.143 1385.78 862.384 1391.97 858.864C1400.7 853.937 1406.82 847.603 1410.34 839.86C1411.32 837.89 1411.82 836.271 1411.82 835.004C1411.82 833.737 1411.32 833.104 1410.34 833.104C1408.51 833.104 1404.78 835.356 1399.15 839.86C1395.07 843.38 1391.05 847.18 1387.11 851.263C1383.31 855.204 1379.65 859.427 1376.13 863.932C1375.99 864.073 1376.2 864.143 1376.77 864.143ZM1412.23 897.083C1410.26 897.083 1409.27 896.45 1409.27 895.183C1409.27 895.042 1409.41 894.549 1409.7 893.705C1416.31 881.035 1424.12 862.947 1433.13 839.438C1434.12 836.904 1435.81 834.722 1438.2 832.892C1440.59 830.922 1442.64 829.936 1444.33 829.936C1446.16 829.936 1446.93 830.922 1446.65 832.892C1445.24 835.849 1443.55 839.649 1441.58 844.295C1439.61 848.94 1437.29 854.36 1434.61 860.554C1438.55 855.345 1444.4 849.503 1452.14 843.028C1456.08 839.79 1459.46 837.115 1462.27 835.004C1465.23 832.892 1467.69 831.344 1469.66 830.359C1471.63 829.373 1473.82 828.88 1476.21 828.88C1479.02 828.88 1481.42 829.584 1483.39 830.992C1485.36 832.4 1486.34 834.019 1486.34 835.849C1486.34 836.975 1485.78 838.242 1484.66 839.649C1483.67 840.916 1482.61 841.55 1481.49 841.55C1480.93 841.55 1479.73 840.987 1477.9 839.86C1476.21 838.594 1474.38 837.96 1472.41 837.96C1470.3 837.96 1467.83 838.594 1465.02 839.86C1447.14 847.884 1431.73 865.973 1418.78 894.127C1417.93 896.098 1415.75 897.083 1412.23 897.083ZM1515.06 898.561C1514.35 898.561 1513.3 897.857 1511.89 896.45C1511.19 895.746 1510.84 894.127 1510.84 891.593C1510.84 886.385 1511.96 879.909 1514.21 872.167C1515.62 867.662 1517.1 863.439 1518.65 859.498C1520.34 855.556 1522.17 851.896 1524.14 848.518C1527.38 843.169 1530.68 840.494 1534.06 840.494C1535.75 840.494 1537.23 841.127 1538.5 842.394C1539.76 843.52 1540.4 844.717 1540.4 845.984C1540.4 846.406 1540.33 846.688 1540.19 846.829C1538.07 848.799 1534.56 853.163 1529.63 859.92C1527.24 864.002 1525.05 868.437 1523.08 873.223C1521.11 878.009 1519.42 883.217 1518.01 888.848C1520.27 885.329 1523.29 881.387 1527.09 877.024C1531.04 872.66 1535.82 867.874 1541.45 862.665C1545.82 858.583 1549.9 854.923 1553.7 851.685C1557.64 848.307 1561.37 845.35 1564.89 842.817C1564.89 842.676 1564.96 842.605 1565.1 842.605V842.394C1568.06 838.171 1571.93 836.06 1576.72 836.06C1578.55 836.06 1579.46 836.623 1579.46 837.749C1579.46 838.312 1579.11 839.086 1578.4 840.072C1574.32 843.732 1570.1 850.348 1565.74 859.92C1561.23 870.196 1558.98 878.29 1558.98 884.203C1558.98 888.989 1560.81 891.382 1564.47 891.382C1572.07 891.382 1579.95 887.581 1588.12 879.98C1598.96 869.985 1605.29 856.471 1607.12 839.438C1607.83 834.37 1609.44 831.625 1611.98 831.203H1612.61C1614.3 831.203 1615.43 831.907 1615.99 833.315L1616.62 836.693C1616.34 847.955 1610.29 860.554 1598.46 874.49C1586.22 888.989 1574.74 896.239 1564.05 896.239C1554.9 896.239 1550.32 890.608 1550.32 879.346C1550.32 871.322 1553.07 862.454 1558.56 852.741C1540.68 866.536 1526.95 881.247 1517.38 896.872C1516.68 897.998 1515.9 898.561 1515.06 898.561ZM1632.54 896.872C1622.27 896.872 1617.13 890.537 1617.13 877.868C1617.13 865.199 1622.2 853.093 1632.33 841.55C1632.47 841.409 1632.4 840.916 1632.12 840.072C1631.84 839.086 1631.7 838.382 1631.7 837.96C1631.7 837.115 1631.98 836.482 1632.54 836.06C1637.47 832.118 1643.24 830.147 1649.86 830.147C1651.69 830.147 1653.17 830.499 1654.29 831.203C1655.7 831.766 1657.04 832.329 1658.31 832.892C1659.57 833.455 1660.77 834.089 1661.89 834.793C1667.24 838.03 1670.97 841.409 1673.09 844.928C1676.61 844.787 1679.56 844.647 1681.95 844.506C1684.35 844.365 1686.18 844.224 1687.44 844.084H1688.29C1689.56 844.084 1690.19 844.576 1690.19 845.562C1690.19 845.843 1689.91 846.054 1689.34 846.195C1687.8 846.477 1685.76 846.829 1683.22 847.251C1680.83 847.673 1677.87 848.095 1674.35 848.518C1674.78 849.503 1674.99 850.629 1674.99 851.896C1674.99 852.882 1674.92 853.585 1674.78 854.008C1672.66 865.41 1667.1 875.405 1658.09 883.992C1649.37 892.579 1640.85 896.872 1632.54 896.872ZM1668.02 844.928C1665.77 841.409 1661.33 839.649 1654.72 839.649C1649.65 839.649 1646.34 840.212 1644.79 841.339C1644.37 841.479 1643.95 841.761 1643.52 842.183C1643.1 842.605 1642.61 843.098 1642.05 843.661C1649.93 844.647 1658.59 845.069 1668.02 844.928ZM1633.18 893.494C1639.37 893.494 1646.48 889.059 1654.5 880.191C1662.67 871.322 1667.53 862.735 1669.07 854.43C1669.21 853.726 1669.29 853.163 1669.29 852.741C1669.43 852.178 1669.5 851.685 1669.5 851.263C1669.5 850.418 1669.36 849.574 1669.07 848.729C1666.4 848.87 1663.65 848.94 1660.84 848.94C1658.02 848.94 1655.21 848.94 1652.39 848.94C1649.58 848.94 1646.97 848.94 1644.58 848.94C1642.33 848.94 1640.29 848.87 1638.46 848.729C1632.83 856.33 1629.31 862.454 1627.9 867.099C1626.21 872.308 1625.37 877.305 1625.37 882.091C1625.37 889.693 1627.97 893.494 1633.18 893.494ZM1677.41 897.083C1675.44 897.083 1674.45 896.45 1674.45 895.183C1674.45 895.042 1674.59 894.549 1674.88 893.705C1681.49 881.035 1689.3 862.947 1698.31 839.438C1699.3 836.904 1700.99 834.722 1703.38 832.892C1705.77 830.922 1707.82 829.936 1709.5 829.936C1711.33 829.936 1712.11 830.922 1711.83 832.892C1710.42 835.849 1708.73 839.649 1706.76 844.295C1704.79 848.94 1702.47 854.36 1699.79 860.554C1703.73 855.345 1709.58 849.503 1717.32 843.028C1721.26 839.79 1724.64 837.115 1727.45 835.004C1730.41 832.892 1732.87 831.344 1734.84 830.359C1736.81 829.373 1739 828.88 1741.39 828.88C1744.2 828.88 1746.6 829.584 1748.57 830.992C1750.54 832.4 1751.52 834.019 1751.52 835.849C1751.52 836.975 1750.96 838.242 1749.84 839.649C1748.85 840.916 1747.79 841.55 1746.67 841.55C1746.1 841.55 1744.91 840.987 1743.08 839.86C1741.39 838.594 1739.56 837.96 1737.59 837.96C1735.48 837.96 1733.01 838.594 1730.2 839.86C1712.32 847.884 1696.91 865.973 1683.96 894.127C1683.11 896.098 1680.93 897.083 1677.41 897.083ZM1754.81 898.561C1744.81 896.45 1739.82 891.804 1739.82 884.625C1739.82 880.402 1741.15 874.279 1743.83 866.255C1745.8 860.202 1748.47 853.304 1751.85 845.562C1755.37 837.679 1759.74 828.951 1764.94 819.379C1777.47 795.87 1786.97 783.623 1793.45 782.638C1794.01 782.497 1794.93 782.427 1796.2 782.427C1803.09 782.427 1806.54 785.664 1806.54 792.14C1806.54 801.008 1799.08 813.607 1784.16 829.936C1775.85 839.227 1766.7 847.462 1756.71 854.641C1750.8 868.718 1747.84 879.065 1747.84 885.681C1747.84 890.045 1749.18 892.649 1751.85 893.494C1753.96 894.057 1758.89 891.523 1766.63 885.892C1775.5 879.417 1783.1 871.534 1789.44 862.243C1790.42 860.835 1791.34 860.131 1792.18 860.131C1792.75 860.131 1793.03 860.413 1793.03 860.976C1793.03 861.539 1792.68 862.384 1791.97 863.51C1786.62 872.097 1779.65 880.261 1771.07 888.004C1762.76 895.605 1757.34 899.124 1754.81 898.561ZM1759.03 848.94C1764.1 845.139 1768.32 841.339 1771.7 837.538L1784.16 822.757C1795.7 809.102 1801.47 799.037 1801.47 792.562C1801.47 791.295 1800.77 790.662 1799.36 790.662C1796.97 790.662 1793.17 794.11 1787.96 801.008C1786.41 803.26 1784.79 805.442 1783.1 807.554C1781.41 809.665 1779.73 811.847 1778.04 814.1C1775.92 817.197 1773.95 820.223 1772.12 823.179C1770.43 826.135 1768.82 829.162 1767.27 832.259C1766.84 832.822 1765.93 834.511 1764.52 837.327C1763.26 840.142 1761.43 844.013 1759.03 848.94ZM1831.7 896.872C1829.02 896.872 1826.49 896.168 1824.09 894.76C1821.84 893.494 1820.36 892.086 1819.66 890.537C1819.24 889.411 1819.03 887.933 1819.03 886.103C1819.03 883.71 1819.31 880.965 1819.87 877.868C1820.43 874.63 1821.28 871.182 1822.4 867.522C1821.42 869.352 1820.01 871.463 1818.18 873.856C1816.49 876.249 1814.38 879.065 1811.85 882.302C1804.25 891.312 1798.05 895.816 1793.27 895.816C1792.56 895.816 1792 895.746 1791.58 895.605C1783.13 893.634 1778.91 888.848 1778.91 881.247C1778.91 875.194 1781.79 867.451 1787.56 858.02C1791.22 852.248 1796.78 846.688 1804.25 841.339C1813.82 834.3 1822.9 830.781 1831.48 830.781C1834.72 830.781 1837.75 831.274 1840.56 832.259L1846.9 820.857C1850.14 815.085 1852.81 809.877 1854.92 805.231C1857.17 800.586 1859 796.574 1860.41 793.195C1861.54 790.662 1865.48 789.395 1872.24 789.395C1875.33 789.395 1876.67 789.747 1876.25 790.45L1848.38 836.693C1848.94 837.538 1849.08 838.523 1848.8 839.649C1848.66 840.494 1848.31 840.635 1847.74 840.072L1846.9 839.227L1844.15 843.872C1833.46 862.032 1828.11 876.179 1828.11 886.314C1828.11 890.256 1829.44 892.227 1832.12 892.227C1835.07 892.227 1839.58 889.974 1845.63 885.47C1853.94 879.276 1861.75 871.041 1869.07 860.765C1870.62 858.653 1872.03 857.597 1873.29 857.597C1873.72 857.597 1873.93 857.738 1873.93 858.02C1873.93 858.724 1873.29 860.061 1872.03 862.032C1865.97 871.322 1858.93 879.487 1850.91 886.525C1844.58 892.015 1839.65 895.253 1836.13 896.239C1834.72 896.661 1833.24 896.872 1831.7 896.872ZM1791.58 892.227C1794.95 893.634 1802.13 887.37 1813.11 873.434C1817.34 868.085 1821 863.299 1824.09 859.075C1827.19 854.712 1829.72 850.84 1831.7 847.462C1832.26 846.336 1833.1 844.787 1834.23 842.817C1835.5 840.705 1837.04 838.242 1838.87 835.426C1838.45 835.285 1837.96 835.215 1837.4 835.215C1836.97 835.215 1836.55 835.215 1836.13 835.215C1830.36 835.215 1824.16 837.397 1817.55 841.761C1810.93 845.984 1804.74 851.826 1798.97 859.287C1794.88 864.495 1791.93 869.281 1790.1 873.645C1788.41 878.009 1787.56 881.81 1787.56 885.047C1787.56 888.848 1788.9 891.241 1791.58 892.227Z" fill="white"/>
</g>
<defs>
<clipPath id="clip0_1_5">
<rect width="4223.08" height="2745" rx="32.9928" fill="white"/>
</clipPath>
</defs>
</svg>
