<svg width="925" height="380" viewBox="0 0 925 380" fill="none" xmlns="http://www.w3.org/2000/svg">
<path d="M64.1581 0.944898L63.8487 13.0079C55.6005 27.3391 47.8679 41.7992 40.6507 56.3882C33.4335 70.9257 26.2679 85.592 19.1538 100.387C22.5562 100.542 25.8813 100.671 29.129 100.774C32.3767 100.877 35.6244 100.954 38.8722 101.006C42.1199 101.057 45.3676 101.109 48.6154 101.16C51.9146 101.16 55.2912 101.16 58.7452 101.16L58.8998 112.76H2.21925L0.904691 102.939C4.97724 95.5156 9.07556 88.0923 13.1997 80.6689C17.3753 73.2455 21.4736 65.8221 25.4946 58.3987C29.5672 50.9238 33.5624 43.4489 37.4803 35.974C41.4497 28.4475 45.2645 20.8952 48.9247 13.3172C41.6044 13.4203 34.2841 13.6007 26.9638 13.8585C19.6436 14.0647 12.246 14.4513 4.77103 15.0184L4.46173 0.944898H64.1581ZM79.5461 67.2913C79.443 67.8584 79.4172 68.4255 79.4688 68.9925C79.5203 69.508 79.5461 70.0493 79.5461 70.6164C79.5461 75.7715 80.0616 80.1276 81.0926 83.6846C82.1237 87.1901 83.4124 90.1028 84.959 92.4226C86.5571 94.7424 88.284 96.5209 90.1399 97.7581C92.0473 98.9953 93.8258 99.9233 95.4754 100.542C97.1251 101.109 98.5427 101.444 99.7284 101.547C100.914 101.65 101.636 101.702 101.894 101.702C101.842 101.702 102.203 101.676 102.976 101.624C103.749 101.521 104.755 101.315 105.992 101.006C107.281 100.645 108.724 100.104 110.322 99.382C111.92 98.6603 113.493 97.655 115.039 96.3662C116.637 95.0259 118.132 93.3763 119.524 91.4173C120.916 89.4068 122.05 86.9581 122.926 84.0713L132.438 86.7777C131.664 89.9739 130.633 92.8092 129.345 95.2837C128.056 97.7581 126.612 99.9233 125.014 101.779C123.468 103.635 121.792 105.233 119.988 106.573C118.235 107.862 116.508 108.919 114.807 109.744C110.786 111.806 106.482 113.017 101.894 113.378C97.357 113.378 93.336 112.708 89.8306 111.368C86.3766 109.976 83.3867 108.12 80.8607 105.8C78.3346 103.48 76.221 100.825 74.5198 97.8354C72.8187 94.8455 71.4526 91.7266 70.4215 88.4789C69.4421 85.1796 68.7203 81.9061 68.2564 78.6584C67.844 75.3591 67.6378 72.266 67.6378 69.3792C67.6378 66.6985 67.7924 63.7601 68.1017 60.5639C68.411 57.3677 69.0039 54.1458 69.8802 50.898C70.7566 47.6503 71.9938 44.5057 73.5919 41.4642C75.19 38.4226 77.2778 35.7162 79.8554 33.3448C82.433 30.9735 85.5518 29.0919 89.212 27.7C92.9236 26.2566 97.3055 25.5348 102.358 25.5348C103.234 25.5348 104.652 25.6379 106.61 25.8441C108.621 25.9988 110.863 26.5143 113.338 27.3907C115.812 28.2155 118.364 29.5043 120.993 31.257C123.622 32.9582 126.02 35.3553 128.185 38.4484C130.401 41.5415 132.206 45.4336 133.598 50.1248C135.041 54.8159 135.763 60.5381 135.763 67.2913H79.5461ZM101.894 37.3658C98.3365 37.6236 95.063 38.4742 92.073 39.9176C90.7843 40.5362 89.4955 41.3353 88.2067 42.3148C86.9695 43.2427 85.8096 44.4026 84.727 45.7945C83.6444 47.1348 82.6907 48.7329 81.8659 50.5887C81.0411 52.4446 80.474 54.584 80.1647 57.0069H122.617C122.308 53.9653 121.483 51.2331 120.143 48.8102C118.802 46.3873 117.153 44.3253 115.194 42.6241C113.286 40.9229 111.147 39.6341 108.776 38.7577C106.456 37.8298 104.162 37.3658 101.894 37.3658ZM186.025 29.4785C189.015 29.4785 191.515 30.0971 193.526 31.3343C195.588 32.5716 197.238 34.2212 198.475 36.2833C199.764 38.3453 200.666 40.7424 201.181 43.4747C201.748 46.1553 202.032 48.9391 202.032 51.826C202.032 54.6613 201.877 58.0894 201.568 62.1104C201.259 66.0799 200.588 70.1267 199.557 74.2508L190.046 72.8589C190.665 69.1987 191.077 65.8479 191.283 62.8064C191.49 59.7133 191.593 57.0326 191.593 54.7644C191.593 49.2484 191 45.3821 189.814 43.1654C188.68 40.8971 186.902 39.763 184.479 39.763C182.365 39.763 180.071 40.7424 177.597 42.7014C175.122 44.6603 172.699 47.6245 170.328 51.594C167.956 55.5634 165.791 60.5639 163.832 66.5954C161.873 72.6269 160.353 79.7152 159.27 87.8603V115.157L147.594 114.538C147.542 99.5366 147.388 86.7261 147.13 76.1066C146.924 65.4355 146.717 56.7233 146.511 49.9701C146.202 42.0312 145.867 35.51 145.506 30.4064L159.27 29.4785V54.7644C160.301 51.9806 161.616 49.1195 163.214 46.1811C164.863 43.1911 166.797 40.4589 169.013 37.9845C171.282 35.51 173.808 33.4737 176.591 31.8756C179.427 30.2775 182.571 29.4785 186.025 29.4785ZM274.719 66.6727C274.719 74.0961 273.843 80.7462 272.09 86.623C270.389 92.4999 268.043 97.5004 265.053 101.624C262.115 105.697 258.635 108.842 254.614 111.058C250.593 113.223 246.314 114.306 241.778 114.306C237.19 114.306 232.885 113.172 228.864 110.904C224.843 108.635 221.338 105.413 218.348 101.238C215.358 97.0622 212.986 92.0617 211.234 86.2364C209.533 80.3596 208.682 73.8383 208.682 66.6727C208.682 60.5381 209.429 54.9448 210.924 49.8928C212.471 44.7892 214.662 40.4074 217.497 36.7472C220.384 33.0871 223.864 30.2518 227.936 28.2413C232.06 26.1792 236.674 25.1482 241.778 25.1482C247.448 25.1482 252.346 26.1792 256.47 28.2413C260.594 30.2518 263.996 33.0871 266.677 36.7472C269.409 40.4074 271.42 44.7892 272.709 49.8928C274.049 54.9448 274.719 60.5381 274.719 66.6727ZM262.733 66.8274C262.733 62.1878 262.321 57.9606 261.496 54.1458C260.671 50.331 259.383 47.0575 257.63 44.3253C255.929 41.5415 253.763 39.4021 251.134 37.9071C248.505 36.4121 245.386 35.6647 241.778 35.6647C238.53 35.6647 235.592 36.4121 232.963 37.9071C230.385 39.4021 228.194 41.5415 226.39 44.3253C224.585 47.0575 223.194 50.331 222.214 54.1458C221.235 57.9606 220.745 62.1878 220.745 66.8274C220.745 72.2403 221.286 77.1376 222.369 81.5195C223.503 85.9013 224.998 89.6646 226.854 92.8092C228.761 95.9538 230.978 98.3767 233.504 100.078C236.081 101.779 238.839 102.63 241.778 102.63C244.665 102.63 247.371 101.805 249.897 100.155C252.475 98.5056 254.691 96.1342 256.547 93.0412C258.455 89.9481 259.95 86.2106 261.032 81.8288C262.166 77.3954 262.733 72.3949 262.733 66.8274ZM375.167 61.1052C374.96 58.1668 374.471 55.5892 373.697 53.3725C372.924 51.1558 371.97 49.2226 370.836 47.573C369.754 45.9233 368.517 44.5315 367.125 43.3973C365.784 42.2632 364.418 41.3353 363.026 40.6136C359.779 38.9124 356.118 37.9329 352.046 37.6752C349.004 37.6752 346.375 38.1649 344.159 39.1444C341.942 40.1238 340.06 41.4642 338.514 43.1654C337.019 44.815 335.807 46.7224 334.879 48.8875C333.951 51.0527 333.23 53.321 332.714 55.6923C332.199 58.0637 331.864 60.4608 331.709 62.8837C331.554 65.3066 331.477 67.5749 331.477 69.6885C331.477 71.8021 331.683 74.0961 332.096 76.5706C332.508 79.045 333.127 81.5195 333.951 83.9939C334.828 86.4684 335.885 88.8655 337.122 91.1853C338.359 93.4536 339.777 95.4899 341.375 97.2942C343.024 99.0469 344.88 100.465 346.942 101.547C349.004 102.578 351.247 103.094 353.67 103.094C356.66 102.836 359.572 101.985 362.408 100.542C363.593 99.9233 364.805 99.1758 366.042 98.2994C367.279 97.3715 368.491 96.2374 369.676 94.897C370.862 93.5567 371.97 92.0102 373.001 90.2574C374.033 88.4531 374.909 86.3911 375.631 84.0713L385.76 89.0202C384.987 91.7524 383.93 94.2011 382.59 96.3662C381.301 98.5314 379.832 100.439 378.182 102.088C376.584 103.687 374.857 105.078 373.001 106.264C371.197 107.45 369.419 108.455 367.666 109.28C363.439 111.187 358.928 112.45 354.134 113.069C353.721 113.069 353.309 113.095 352.897 113.146C352.536 113.198 352.149 113.223 351.737 113.223C348.076 113.223 344.726 112.631 341.684 111.445C338.694 110.208 335.988 108.532 333.565 106.419C331.193 104.305 329.131 101.805 327.379 98.918C325.626 96.0311 324.157 92.9123 322.971 89.5615C321.837 86.1591 320.986 82.6278 320.419 78.9677C319.852 75.3076 319.569 71.6216 319.569 67.9099C319.569 62.394 320.187 57.1357 321.424 52.1353C322.713 47.1348 324.672 42.7529 327.301 38.9897C329.93 35.1749 333.281 32.1592 337.354 29.9425C341.426 27.7258 346.272 26.6174 351.891 26.6174C356.222 26.6174 360.062 27.1587 363.413 28.2413C366.764 29.2723 369.676 30.6642 372.151 32.4169C374.625 34.1697 376.687 36.1544 378.337 38.3711C380.038 40.5878 381.43 42.8818 382.513 45.2532C383.595 47.573 384.42 49.867 384.987 52.1353C385.554 54.352 385.915 56.3367 386.07 58.0894L375.167 61.1052ZM457.21 69.3792C457.107 74.5858 456.953 79.7667 456.746 84.9219C456.643 87.1386 456.54 89.4584 456.437 91.8813C456.334 94.3042 456.205 96.7529 456.051 99.2273C455.947 101.65 455.793 104.047 455.587 106.419C455.432 108.79 455.277 111.007 455.123 113.069L444.529 112.76C444.632 111.265 444.709 109.795 444.761 108.352C444.812 106.908 444.838 105.465 444.838 104.022C442.518 106.496 440.07 108.429 437.492 109.821C434.915 111.213 432.466 112.27 430.146 112.992C427.465 113.868 424.81 114.435 422.181 114.693C421.614 114.796 421.073 114.847 420.557 114.847C420.094 114.847 419.578 114.847 419.011 114.847C415.402 114.847 411.948 114.332 408.649 113.301C405.35 112.321 402.411 110.801 399.834 108.739C397.308 106.676 395.272 104.099 393.725 101.006C392.23 97.8612 391.483 94.1753 391.483 89.9481C391.483 86.2364 392.204 82.7567 393.648 79.509C395.143 76.2097 397.205 73.3486 399.834 70.9257C402.515 68.4512 405.737 66.4923 409.5 65.0489C413.263 63.6054 417.439 62.8322 422.027 62.7291C422.181 62.7291 423.058 62.7806 424.656 62.8837C426.254 62.9868 428.187 63.3219 430.455 63.889C432.775 64.4045 435.25 65.2551 437.879 66.4407C440.559 67.5749 443.034 69.173 445.302 71.235C445.302 68.9152 445.251 66.4665 445.147 63.889C445.044 61.3114 444.787 58.7854 444.374 56.3109C444.013 53.7849 443.42 51.3878 442.596 49.1195C441.771 46.8513 440.637 44.8665 439.193 43.1654C437.801 41.4126 436.023 40.0465 433.858 39.067C431.693 38.036 429.063 37.5205 425.97 37.5205C423.547 37.5205 421.331 37.9845 419.32 38.9124C417.31 39.8403 415.531 41.1033 413.985 42.7014C412.438 44.2995 411.149 46.2069 410.118 48.4236C409.087 50.5887 408.314 52.9343 407.799 55.4603L394.808 51.2847C395.426 48.3463 396.303 45.7429 397.437 43.4747C398.622 41.2064 399.937 39.2217 401.38 37.5205C402.875 35.8193 404.448 34.3759 406.097 33.1902C407.799 31.953 409.474 30.9219 411.124 30.0971C414.99 28.1897 419.166 27.0298 423.651 26.6174C429.837 26.6174 435.069 27.5453 439.348 29.4012C443.627 31.257 447.081 33.9892 449.71 37.5978C452.39 41.2064 454.298 45.6656 455.432 50.9754C456.618 56.2851 457.21 62.4197 457.21 69.3792ZM445.147 90.876C445.147 89.845 445.173 88.8397 445.225 87.8603C445.276 86.8293 445.302 85.8498 445.302 84.9219C442.57 82.1381 439.863 80.0245 437.183 78.5811C434.554 77.1376 432.157 76.055 429.991 75.3333C427.517 74.5085 425.12 74.0445 422.8 73.9414C419.604 73.9414 416.846 74.4054 414.526 75.3333C412.258 76.2097 410.376 77.3954 408.881 78.8904C407.438 80.3853 406.355 82.0865 405.633 83.9939C404.963 85.9013 404.628 87.8861 404.628 89.9481C404.628 92.0617 405.015 93.9691 405.788 95.6703C406.561 97.3715 407.644 98.8149 409.036 100.001C410.479 101.186 412.206 102.114 414.217 102.784C416.279 103.403 418.573 103.712 421.099 103.712C423.573 103.506 426.151 102.939 428.831 102.011C431.151 101.186 433.703 99.9233 436.487 98.2221C439.322 96.4693 442.209 94.0206 445.147 90.876ZM511.881 29.4785C514.87 29.4785 517.371 30.0971 519.381 31.3343C521.443 32.5716 523.093 34.2212 524.33 36.2833C525.619 38.3453 526.521 40.7424 527.037 43.4747C527.604 46.1553 527.887 48.9391 527.887 51.826C527.887 54.6613 527.733 58.0894 527.423 62.1104C527.114 66.0799 526.444 70.1267 525.413 74.2508L515.901 72.8589C516.52 69.1987 516.933 65.8479 517.139 62.8064C517.345 59.7133 517.448 57.0326 517.448 54.7644C517.448 49.2484 516.855 45.3821 515.67 43.1654C514.535 40.8971 512.757 39.763 510.334 39.763C508.22 39.763 505.926 40.7424 503.452 42.7014C500.977 44.6603 498.555 47.6245 496.183 51.594C493.812 55.5634 491.647 60.5639 489.688 66.5954C487.729 72.6269 486.208 79.7152 485.125 87.8603V115.157L473.449 114.538C473.398 99.5366 473.243 86.7261 472.985 76.1066C472.779 65.4355 472.573 56.7233 472.366 49.9701C472.057 42.0312 471.722 35.51 471.361 30.4064L485.125 29.4785V54.7644C486.156 51.9806 487.471 49.1195 489.069 46.1811C490.719 43.1911 492.652 40.4589 494.869 37.9845C497.137 35.51 499.663 33.4737 502.447 31.8756C505.282 30.2775 508.427 29.4785 511.881 29.4785ZM605.987 66.2088C605.987 69.6111 605.755 73.1682 605.291 76.8799C604.827 80.54 604.054 84.1744 602.972 87.7829C601.941 91.34 600.574 94.7424 598.873 97.9901C597.172 101.238 595.033 104.099 592.455 106.573C589.929 108.996 586.965 110.929 583.563 112.373C580.16 113.816 576.242 114.538 571.809 114.538C568.458 114.538 565.262 114.255 562.22 113.687C559.23 113.172 556.447 112.244 553.869 110.904C551.291 109.512 548.972 107.656 546.91 105.336C544.899 103.016 543.172 100.078 541.729 96.5209C540.285 92.9638 539.177 88.7109 538.404 83.762C537.63 78.7615 537.244 72.962 537.244 66.3634L538.868 1.09955H551.317L549.616 40.0723C550.853 38.2164 552.142 36.5926 553.482 35.2007C554.823 33.8088 556.163 32.6231 557.503 31.6437C558.895 30.6126 560.261 29.762 561.602 29.0919C562.942 28.3702 564.205 27.7773 565.391 27.3134C568.226 26.2823 571.036 25.6895 573.819 25.5348C579.748 25.6379 584.748 26.669 588.821 28.6279C592.945 30.5869 596.27 33.3448 598.796 36.9019C601.322 40.4074 603.152 44.6603 604.286 49.6608C605.42 54.6097 605.987 60.1257 605.987 66.2088ZM594.234 72.8589C594.234 70.8999 594.182 68.6832 594.079 66.2088C593.976 63.7343 593.692 61.2083 593.228 58.6307C592.816 56.0016 592.172 53.4756 591.295 51.0527C590.47 48.5782 589.285 46.3873 587.738 44.4799C586.243 42.521 584.362 40.9487 582.093 39.763C579.825 38.5773 577.067 37.9845 573.819 37.9845C571.396 38.036 569.102 38.5773 566.937 39.6083C564.772 40.6393 562.762 42.0055 560.906 43.7066C559.05 45.4078 557.374 47.3668 555.879 49.5835C554.385 51.7486 553.122 54.0169 552.09 56.3882C551.059 58.7081 550.26 61.0536 549.693 63.425C549.126 65.7448 548.843 67.9357 548.843 69.9978C548.843 75.256 549.178 79.9472 549.848 84.0713C550.57 88.1954 551.781 91.6751 553.482 94.5104C555.235 97.3457 557.581 99.5109 560.519 101.006C563.509 102.501 567.272 103.248 571.809 103.248C574.747 103.248 577.325 102.759 579.542 101.779C581.758 100.8 583.691 99.5109 585.341 97.9128C586.991 96.2631 588.357 94.3815 589.439 92.2679C590.573 90.1543 591.476 87.9892 592.146 85.7725C592.868 83.5042 593.383 81.2617 593.692 79.045C594.002 76.7768 594.182 74.7147 594.234 72.8589ZM680.376 66.6727C680.376 74.0961 679.499 80.7462 677.747 86.623C676.045 92.4999 673.7 97.5004 670.71 101.624C667.771 105.697 664.292 108.842 660.271 111.058C656.25 113.223 651.971 114.306 647.434 114.306C642.846 114.306 638.542 113.172 634.521 110.904C630.5 108.635 626.994 105.413 624.004 101.238C621.014 97.0622 618.643 92.0617 616.89 86.2364C615.189 80.3596 614.339 73.8383 614.339 66.6727C614.339 60.5381 615.086 54.9448 616.581 49.8928C618.128 44.7892 620.319 40.4074 623.154 36.7472C626.041 33.0871 629.52 30.2518 633.593 28.2413C637.717 26.1792 642.331 25.1482 647.434 25.1482C653.105 25.1482 658.002 26.1792 662.127 28.2413C666.251 30.2518 669.653 33.0871 672.334 36.7472C675.066 40.4074 677.076 44.7892 678.365 49.8928C679.706 54.9448 680.376 60.5381 680.376 66.6727ZM668.39 66.8274C668.39 62.1878 667.978 57.9606 667.153 54.1458C666.328 50.331 665.039 47.0575 663.286 44.3253C661.585 41.5415 659.42 39.4021 656.791 37.9071C654.162 36.4121 651.043 35.6647 647.434 35.6647C644.187 35.6647 641.248 36.4121 638.619 37.9071C636.042 39.4021 633.851 41.5415 632.046 44.3253C630.242 47.0575 628.85 50.331 627.871 54.1458C626.891 57.9606 626.402 62.1878 626.402 66.8274C626.402 72.2403 626.943 77.1376 628.025 81.5195C629.16 85.9013 630.655 89.6646 632.51 92.8092C634.418 95.9538 636.634 98.3767 639.16 100.078C641.738 101.779 644.496 102.63 647.434 102.63C650.321 102.63 653.028 101.805 655.554 100.155C658.131 98.5056 660.348 96.1342 662.204 93.0412C664.111 89.9481 665.606 86.2106 666.689 81.8288C667.823 77.3954 668.39 72.3949 668.39 66.8274ZM740.536 113.069C740.124 105.233 739.711 98.1963 739.299 91.9586C738.938 85.6693 738.603 80.308 738.293 75.8746C737.933 70.7195 737.572 66.1314 737.211 62.1104C736.799 55.8727 735.999 51.1816 734.814 48.0369C733.68 44.8408 732.21 43.2427 730.406 43.2427C728.602 43.2427 726.772 44.3768 724.916 46.6451C723.06 48.9133 721.23 51.9291 719.426 55.6923C717.621 59.4555 715.894 63.7601 714.245 68.6059C712.647 73.4002 711.152 78.3491 709.76 83.4526C708.42 88.5562 707.234 93.6082 706.203 98.6087C705.223 103.609 704.476 108.12 703.96 112.141L693.367 112.45C693.676 103.893 693.831 95.7734 693.831 88.0923C693.831 80.0503 693.702 72.7042 693.444 66.0541C693.186 59.3524 692.903 53.5787 692.593 48.7329C692.232 43.0623 691.846 37.9587 691.433 33.4222L706.358 34.0408V65.1262C707.543 61.7238 708.6 58.8627 709.528 56.5429C710.456 54.2231 711.229 52.3415 711.848 50.898C712.569 49.1969 713.162 47.8565 713.626 46.877C714.967 44.351 716.436 42.1086 718.034 40.1496C719.632 38.1391 721.282 36.4637 722.983 35.1234C724.736 33.7315 726.488 32.6747 728.241 31.953C730.045 31.2312 731.772 30.8704 733.422 30.8704C735.072 30.8704 736.618 31.2312 738.062 31.953C739.505 32.6747 740.768 33.8088 741.851 35.3553C742.985 36.9019 743.938 38.8866 744.712 41.3095C745.536 43.6809 746.155 46.542 746.567 49.8928C747.392 55.4603 748.114 61.5434 748.733 68.1419C749.3 73.8126 749.815 80.4369 750.279 88.0149C750.743 95.593 751.027 103.738 751.13 112.45L740.536 113.069ZM69.4936 198.673C69.4936 206.096 68.6172 212.746 66.8645 218.623C65.1633 224.5 62.8177 229.5 59.8278 233.624C56.8893 237.697 53.4096 240.842 49.3886 243.058C45.3676 245.223 41.0889 246.306 36.5524 246.306C31.9643 246.306 27.6598 245.172 23.6388 242.904C19.6178 240.635 16.1123 237.413 13.1223 233.238C10.1324 229.062 7.76101 224.062 6.00826 218.236C4.30707 212.36 3.45648 205.838 3.45648 198.673C3.45648 192.538 4.20397 186.945 5.69896 181.893C7.24549 176.789 9.43642 172.407 12.2717 168.747C15.1586 165.087 18.6383 162.252 22.7109 160.241C26.835 158.179 31.4488 157.148 36.5524 157.148C42.223 157.148 47.1204 158.179 51.2445 160.241C55.3686 162.252 58.771 165.087 61.4516 168.747C64.1838 172.407 66.1943 176.789 67.4831 181.893C68.8234 186.945 69.4936 192.538 69.4936 198.673ZM57.5079 198.827C57.5079 194.188 57.0955 189.961 56.2707 186.146C55.4459 182.331 54.1571 179.057 52.4044 176.325C50.7032 173.541 48.538 171.402 45.9089 169.907C43.2798 168.412 40.161 167.665 36.5524 167.665C33.3046 167.665 30.3662 168.412 27.7371 169.907C25.1595 171.402 22.9686 173.541 21.1643 176.325C19.36 179.057 17.9681 182.331 16.9887 186.146C16.0092 189.961 15.5195 194.188 15.5195 198.827C15.5195 204.24 16.0608 209.138 17.1433 213.519C18.2775 217.901 19.7724 221.665 21.6283 224.809C23.5357 227.954 25.7524 230.377 28.2784 232.078C30.856 233.779 33.6139 234.63 36.5524 234.63C39.4392 234.63 42.1457 233.805 44.6717 232.155C47.2492 230.506 49.466 228.134 51.3218 225.041C53.2292 221.948 54.7242 218.211 55.8068 213.829C56.9409 209.395 57.5079 204.395 57.5079 198.827ZM139.474 165.268L137.851 245.378H128.262L127.257 218.468C126.123 221.871 124.885 224.887 123.545 227.516C122.256 230.093 120.916 232.361 119.524 234.32C118.184 236.228 116.818 237.877 115.426 239.269C114.085 240.61 112.771 241.744 111.482 242.672C108.492 244.785 105.476 246.074 102.435 246.538C98.3623 246.538 94.9341 245.61 92.1504 243.754C89.4182 241.898 87.2015 239.115 85.5003 235.403C83.8506 231.691 82.6649 227.077 81.9432 221.561C81.2215 216.045 80.8607 209.627 80.8607 202.307C80.8607 196.688 81.0411 190.657 81.4019 184.213C81.7628 177.717 82.2783 170.706 82.9485 163.18L97.022 164.34C95.6816 173.361 94.7022 181.248 94.0835 188.002C93.5165 194.755 93.2329 200.632 93.2329 205.632C93.2329 210.426 93.4392 214.499 93.8516 217.85C94.264 221.149 94.7795 223.881 95.3981 226.046C96.0167 228.16 96.6869 229.81 97.4086 230.995C98.1819 232.181 98.9294 233.057 99.6511 233.624C100.373 234.192 101.017 234.527 101.584 234.63C102.203 234.733 102.641 234.784 102.899 234.784C104.858 234.784 106.739 233.934 108.544 232.233C110.348 230.531 112.049 228.263 113.647 225.428C115.245 222.592 116.715 219.319 118.055 215.607C119.447 211.896 120.71 208.055 121.844 204.086C122.978 200.065 123.983 196.044 124.86 192.023C125.788 187.95 126.561 184.161 127.179 180.656C127.798 177.15 128.288 174.057 128.649 171.376C129.01 168.644 129.241 166.608 129.345 165.268H139.474ZM177.365 133.1L177.055 158.772H192.443V168.593H176.901L175.818 244.45H166.307L165.688 168.593H148.29V158.772H165.688L165.534 132.326L177.365 133.1ZM268.378 199.755C268.378 206.199 267.657 212.385 266.213 218.314C264.821 224.191 262.759 229.371 260.027 233.856C257.346 238.341 254.047 241.924 250.129 244.605C246.211 247.234 241.752 248.549 236.752 248.549C233.349 248.394 230.05 247.698 226.854 246.461C225.513 245.945 224.122 245.301 222.678 244.528C221.286 243.703 219.894 242.723 218.502 241.589C217.162 240.403 215.899 239.037 214.713 237.491C213.528 235.893 212.471 234.037 211.543 231.923V272.597H200.64V162.716H212.78L211.698 174.624C212.78 172.82 213.966 171.222 215.255 169.83C216.544 168.438 217.884 167.226 219.276 166.195C220.668 165.164 222.059 164.314 223.451 163.644C224.895 162.922 226.287 162.329 227.627 161.865C230.72 160.783 233.865 160.164 237.061 160.009C241.546 160.009 245.67 160.937 249.433 162.793C253.248 164.597 256.521 167.226 259.254 170.68C262.037 174.134 264.228 178.31 265.826 183.207C267.425 188.105 268.275 193.621 268.378 199.755ZM234.045 236.718C237.138 236.718 239.845 236.15 242.164 235.016C244.536 233.831 246.572 232.284 248.273 230.377C249.974 228.418 251.392 226.175 252.526 223.649C253.66 221.123 254.563 218.468 255.233 215.685C255.954 212.901 256.444 210.117 256.702 207.333C257.011 204.498 257.166 201.817 257.166 199.291C257.166 193.982 256.444 189.497 255.001 185.836C253.557 182.125 251.753 179.109 249.588 176.789C247.423 174.469 245.051 172.794 242.474 171.763C239.948 170.68 237.551 170.139 235.282 170.139C232.963 170.139 230.437 170.758 227.704 171.995C225.024 173.181 222.523 175.062 220.204 177.64C217.884 180.217 215.951 183.517 214.404 187.538C212.909 191.507 212.162 196.276 212.162 201.843C212.162 206.38 212.497 210.375 213.167 213.829C213.889 217.283 214.817 220.324 215.951 222.953C217.136 225.531 218.477 227.696 219.972 229.449C221.518 231.202 223.091 232.619 224.689 233.702C226.338 234.784 227.962 235.558 229.56 236.022C231.158 236.486 232.653 236.718 234.045 236.718ZM338.05 165.268L336.426 245.378H326.837L325.832 218.468C324.698 221.871 323.461 224.887 322.12 227.516C320.832 230.093 319.491 232.361 318.099 234.32C316.759 236.228 315.393 237.877 314.001 239.269C312.661 240.61 311.346 241.744 310.057 242.672C307.067 244.785 304.052 246.074 301.01 246.538C296.938 246.538 293.509 245.61 290.726 243.754C287.994 241.898 285.777 239.115 284.076 235.403C282.426 231.691 281.24 227.077 280.519 221.561C279.797 216.045 279.436 209.627 279.436 202.307C279.436 196.688 279.616 190.657 279.977 184.213C280.338 177.717 280.854 170.706 281.524 163.18L295.597 164.34C294.257 173.361 293.278 181.248 292.659 188.002C292.092 194.755 291.808 200.632 291.808 205.632C291.808 210.426 292.015 214.499 292.427 217.85C292.839 221.149 293.355 223.881 293.973 226.046C294.592 228.16 295.262 229.81 295.984 230.995C296.757 232.181 297.505 233.057 298.226 233.624C298.948 234.192 299.593 234.527 300.16 234.63C300.778 234.733 301.216 234.784 301.474 234.784C303.433 234.784 305.315 233.934 307.119 232.233C308.923 230.531 310.624 228.263 312.223 225.428C313.821 222.592 315.29 219.319 316.63 215.607C318.022 211.896 319.285 208.055 320.419 204.086C321.553 200.065 322.559 196.044 323.435 192.023C324.363 187.95 325.136 184.161 325.755 180.656C326.373 177.15 326.863 174.057 327.224 171.376C327.585 168.644 327.817 166.608 327.92 165.268H338.05ZM375.94 133.1L375.631 158.772H391.019V168.593H375.476L374.393 244.45H364.882L364.264 168.593H346.865V158.772H364.264L364.109 132.326L375.94 133.1ZM467.34 145.163C466.876 145.059 466.412 144.982 465.948 144.931C465.484 144.879 465.02 144.853 464.556 144.853C462.958 144.853 461.541 145.137 460.304 145.704C459.066 146.271 457.984 147.018 457.056 147.946C456.128 148.823 455.329 149.854 454.659 151.039C454.04 152.174 453.525 153.333 453.112 154.519C452.081 157.354 451.462 160.576 451.256 164.185C451.205 164.34 451.179 164.494 451.179 164.649C451.127 164.855 451.102 165.216 451.102 165.731L466.567 165.422V177.485H450.715C450.56 183.62 450.406 192.151 450.251 203.08C450.148 214.009 450.096 227.696 450.096 244.141L440.121 244.45C439.709 228.16 439.451 214.55 439.348 203.622C439.245 192.693 439.193 183.981 439.193 177.485H426.976V166.195L439.193 166.041V161.633C439.193 155.653 440.044 150.704 441.745 146.786C443.446 142.869 445.637 139.775 448.318 137.507C451.05 135.187 454.117 133.564 457.52 132.636C460.922 131.708 464.324 131.244 467.727 131.244L467.34 145.163ZM514.974 161.479C517.964 161.479 520.464 162.097 522.474 163.334C524.536 164.572 526.186 166.221 527.423 168.283C528.712 170.345 529.614 172.742 530.13 175.475C530.697 178.155 530.98 180.939 530.98 183.826C530.98 186.661 530.826 190.089 530.516 194.11C530.207 198.08 529.537 202.127 528.506 206.251L518.995 204.859C519.613 201.199 520.026 197.848 520.232 194.806C520.438 191.713 520.541 189.033 520.541 186.764C520.541 181.248 519.948 177.382 518.763 175.165C517.628 172.897 515.85 171.763 513.427 171.763C511.313 171.763 509.019 172.742 506.545 174.701C504.07 176.66 501.648 179.625 499.276 183.594C496.905 187.563 494.74 192.564 492.781 198.595C490.822 204.627 489.301 211.715 488.218 219.86V247.157L476.542 246.538C476.491 231.537 476.336 218.726 476.078 208.107C475.872 197.435 475.666 188.723 475.46 181.97C475.15 174.031 474.815 167.51 474.454 162.406L488.218 161.479V186.764C489.25 183.981 490.564 181.12 492.162 178.181C493.812 175.191 495.745 172.459 497.962 169.984C500.23 167.51 502.756 165.474 505.54 163.876C508.375 162.278 511.52 161.479 514.974 161.479ZM603.667 198.673C603.667 206.096 602.791 212.746 601.038 218.623C599.337 224.5 596.992 229.5 594.002 233.624C591.063 237.697 587.584 240.842 583.563 243.058C579.542 245.223 575.263 246.306 570.726 246.306C566.138 246.306 561.834 245.172 557.813 242.904C553.792 240.635 550.286 237.413 547.296 233.238C544.306 229.062 541.935 224.062 540.182 218.236C538.481 212.36 537.63 205.838 537.63 198.673C537.63 192.538 538.378 186.945 539.873 181.893C541.419 176.789 543.61 172.407 546.446 168.747C549.332 165.087 552.812 162.252 556.885 160.241C561.009 158.179 565.623 157.148 570.726 157.148C576.397 157.148 581.294 158.179 585.418 160.241C589.542 162.252 592.945 165.087 595.626 168.747C598.358 172.407 600.368 176.789 601.657 181.893C602.997 186.945 603.667 192.538 603.667 198.673ZM591.682 198.827C591.682 194.188 591.269 189.961 590.445 186.146C589.62 182.331 588.331 179.057 586.578 176.325C584.877 173.541 582.712 171.402 580.083 169.907C577.454 168.412 574.335 167.665 570.726 167.665C567.479 167.665 564.54 168.412 561.911 169.907C559.333 171.402 557.143 173.541 555.338 176.325C553.534 179.057 552.142 182.331 551.163 186.146C550.183 189.961 549.693 194.188 549.693 198.827C549.693 204.24 550.235 209.138 551.317 213.519C552.451 217.901 553.946 221.665 555.802 224.809C557.71 227.954 559.926 230.377 562.452 232.078C565.03 233.779 567.788 234.63 570.726 234.63C573.613 234.63 576.32 233.805 578.846 232.155C581.423 230.506 583.64 228.134 585.496 225.041C587.403 221.948 588.898 218.211 589.981 213.829C591.115 209.395 591.682 204.395 591.682 198.827ZM681.69 242.517C682.309 238.341 682.824 234.295 683.237 230.377C683.649 226.459 683.959 222.773 684.165 219.319C684.371 215.865 684.5 212.72 684.551 209.885C684.654 206.998 684.706 204.524 684.706 202.462C684.706 194.832 684.139 189.058 683.005 185.141C681.871 181.171 680.066 179.186 677.592 179.186C675.685 179.186 673.519 180.733 671.097 183.826C668.725 186.867 666.354 191.61 663.982 198.054C664.086 199.549 664.163 201.147 664.214 202.848C664.266 204.498 664.292 206.277 664.292 208.184C664.292 213.133 664.111 218.52 663.75 224.345C663.39 230.171 662.719 236.382 661.74 242.981L650.373 243.677C651.095 236.408 651.559 229.887 651.765 224.113C651.971 218.34 652.074 213.339 652.074 209.112C652.074 203.132 651.919 198.131 651.61 194.11C651.301 190.089 650.888 186.867 650.373 184.445C649.909 181.97 649.368 180.217 648.749 179.186C648.13 178.155 647.512 177.64 646.893 177.64C645.759 177.64 644.419 178.825 642.872 181.197C641.377 183.568 639.547 187.074 637.382 191.713C635.217 196.404 633.567 200.915 632.433 205.246C631.299 209.576 630.397 213.829 629.727 218.004C629.108 222.18 628.618 226.304 628.257 230.377C627.897 234.449 627.458 238.548 626.943 242.672L616.349 242.981C616.452 239.269 616.504 235.609 616.504 232.001C616.504 228.392 616.504 224.887 616.504 221.484C616.504 213.287 616.426 205.787 616.272 198.982C616.117 192.177 615.962 186.275 615.808 181.274C615.602 175.449 615.395 170.216 615.189 165.577L629.263 166.195V191.095C629.675 189.651 630.216 188.002 630.887 186.146C631.557 184.238 632.33 182.305 633.206 180.346C634.083 178.336 635.088 176.377 636.222 174.469C637.408 172.51 638.697 170.784 640.088 169.289C641.48 167.742 643.001 166.505 644.651 165.577C646.3 164.649 648.105 164.185 650.064 164.185C652.796 164.185 655.296 165.628 657.564 168.515C659.884 171.351 661.56 175.707 662.591 181.583C664.498 177.975 666.431 175.165 668.39 173.155C670.349 171.144 672.128 169.675 673.726 168.747C675.375 167.768 676.741 167.175 677.824 166.969C678.907 166.763 679.577 166.659 679.834 166.659C681.948 166.659 683.984 167.149 685.943 168.129C687.902 169.108 689.629 170.99 691.124 173.773C692.671 176.506 693.882 180.32 694.759 185.218C695.686 190.115 696.15 196.456 696.15 204.24C696.15 209.344 695.944 215.092 695.532 221.484C695.119 227.825 694.475 234.991 693.599 242.981L681.69 242.517ZM765.822 133.1L765.513 158.772H780.901V168.593H765.358L764.275 244.45H754.764L754.146 168.593H736.747V158.772H754.146L753.991 132.326L765.822 133.1ZM836.421 243.832C836.009 235.996 835.596 229.036 835.184 222.953C834.823 216.819 834.488 211.638 834.179 207.411C833.818 202.462 833.457 198.131 833.096 194.42C832.632 188.182 831.833 183.491 830.699 180.346C829.565 177.15 828.096 175.552 826.291 175.552C824.59 175.552 822.812 176.66 820.956 178.877C819.152 181.094 817.347 184.032 815.543 187.692C813.739 191.352 811.986 195.554 810.285 200.297C808.635 204.988 807.114 209.834 805.723 214.834C804.382 219.835 803.197 224.758 802.165 229.603C801.134 234.449 800.361 238.857 799.846 242.826L789.561 243.213C789.561 224.861 789.432 208.803 789.175 195.038C788.968 181.274 788.736 169.804 788.479 160.628C788.221 151.452 787.963 144.57 787.705 139.982C787.499 135.394 787.37 133.1 787.319 133.1L800.619 133.718V198.209C801.753 195.064 802.861 192.306 803.944 189.935C805.027 187.563 805.98 185.579 806.805 183.981C807.733 182.125 808.635 180.527 809.512 179.186C811.058 176.712 812.682 174.495 814.383 172.536C816.084 170.577 817.811 168.928 819.564 167.587C821.368 166.195 823.121 165.139 824.822 164.417C826.575 163.695 828.276 163.334 829.926 163.334C833.174 163.334 835.828 164.855 837.89 167.897C839.953 170.887 841.473 175.655 842.453 182.202C843.278 187.46 843.999 193.286 844.618 199.678C845.185 205.142 845.701 211.586 846.164 219.01C846.628 226.433 846.912 234.501 847.015 243.213L836.421 243.832ZM868.744 199.291C868.641 199.858 868.615 200.425 868.667 200.993C868.718 201.508 868.744 202.049 868.744 202.616C868.744 207.772 869.259 212.128 870.29 215.685C871.321 219.19 872.61 222.103 874.157 224.423C875.755 226.742 877.482 228.521 879.338 229.758C881.245 230.995 883.024 231.923 884.673 232.542C886.323 233.109 887.741 233.444 888.926 233.547C890.112 233.65 890.834 233.702 891.091 233.702C891.04 233.702 891.401 233.676 892.174 233.624C892.947 233.521 893.952 233.315 895.19 233.006C896.478 232.645 897.922 232.104 899.52 231.382C901.118 230.66 902.69 229.655 904.237 228.366C905.835 227.026 907.33 225.376 908.722 223.417C910.114 221.407 911.248 218.958 912.124 216.071L921.635 218.778C920.862 221.974 919.831 224.809 918.542 227.284C917.254 229.758 915.81 231.923 914.212 233.779C912.666 235.635 910.99 237.233 909.186 238.573C907.433 239.862 905.706 240.919 904.005 241.744C899.984 243.806 895.679 245.017 891.091 245.378C886.555 245.378 882.534 244.708 879.028 243.368C875.574 241.976 872.584 240.12 870.058 237.8C867.532 235.48 865.419 232.825 863.718 229.835C862.016 226.845 860.65 223.727 859.619 220.479C858.64 217.18 857.918 213.906 857.454 210.658C857.042 207.359 856.836 204.266 856.836 201.379C856.836 198.698 856.99 195.76 857.3 192.564C857.609 189.368 858.202 186.146 859.078 182.898C859.954 179.65 861.192 176.506 862.79 173.464C864.388 170.423 866.476 167.716 869.053 165.345C871.631 162.973 874.75 161.092 878.41 159.7C882.121 158.257 886.503 157.535 891.555 157.535C892.432 157.535 893.849 157.638 895.808 157.844C897.819 157.999 900.061 158.514 902.536 159.391C905.01 160.215 907.562 161.504 910.191 163.257C912.82 164.958 915.217 167.355 917.382 170.448C919.599 173.541 921.403 177.434 922.795 182.125C924.239 186.816 924.961 192.538 924.961 199.291H868.744ZM891.091 169.366C887.534 169.624 884.261 170.474 881.271 171.918C879.982 172.536 878.693 173.335 877.405 174.315C876.167 175.243 875.007 176.403 873.925 177.794C872.842 179.135 871.889 180.733 871.064 182.589C870.239 184.445 869.672 186.584 869.363 189.007H911.815C911.506 185.965 910.681 183.233 909.34 180.81C908 178.387 906.351 176.325 904.392 174.624C902.484 172.923 900.345 171.634 897.973 170.758C895.654 169.83 893.36 169.366 891.091 169.366ZM49.6979 320.852C49.801 320.388 49.8526 319.924 49.8526 319.46C49.8526 318.945 49.8526 318.404 49.8526 317.836C49.8526 315.207 49.466 312.759 48.6927 310.49C47.971 308.171 46.9142 306.16 45.5223 304.459C44.182 302.706 42.5323 301.34 40.5734 300.361C38.6144 299.33 36.4493 298.814 34.0779 298.814C31.3457 298.814 28.8712 299.175 26.6545 299.897C24.4378 300.567 22.5304 301.572 20.9323 302.912C19.3858 304.253 18.1744 305.928 17.298 307.939C16.4216 309.898 15.9834 312.192 15.9834 314.821C15.9834 316.316 16.3443 317.862 17.066 319.46C17.8393 321.007 18.9734 322.476 20.4684 323.868C21.9634 325.26 23.7934 326.497 25.9586 327.58C28.1753 328.662 30.7529 329.435 33.6913 329.899C39.2073 330.827 43.6922 332.193 47.1461 333.998C50.6516 335.751 53.3838 337.735 55.3428 339.952C57.3533 342.169 58.7194 344.463 59.4411 346.834C60.1628 349.205 60.5237 351.422 60.5237 353.484C60.5237 354.773 60.369 356.242 60.0597 357.892C59.802 359.541 59.2865 361.243 58.5132 362.995C57.7399 364.748 56.6573 366.475 55.2655 368.176C53.9251 369.826 52.1724 371.321 50.0072 372.661C47.8421 373.95 45.2388 375.007 42.1972 375.832C39.2073 376.656 35.6502 377.069 31.5261 377.069C31.1137 377.069 30.1858 377.017 28.7424 376.914C27.3505 376.811 25.6751 376.476 23.7161 375.909C21.8087 375.342 19.7467 374.491 17.53 373.357C15.3648 372.223 13.3028 370.625 11.3438 368.563C9.38487 366.501 7.6579 363.897 6.16292 360.753C4.71948 357.608 3.76578 353.768 3.30182 349.231L15.9834 348.535C16.3443 351.525 16.9887 354.025 17.9166 356.036C18.8961 358.046 20.0044 359.722 21.2417 361.062C22.5304 362.351 23.845 363.356 25.1853 364.078C26.5772 364.8 27.866 365.341 29.0517 365.702C30.2889 366.011 31.3199 366.192 32.1447 366.243C33.0211 366.295 33.5366 366.32 33.6913 366.32C35.8564 366.269 37.8154 365.908 39.5681 365.238C41.3724 364.516 42.8932 363.614 44.1304 362.531C45.3676 361.449 46.3213 360.212 46.9915 358.82C47.6617 357.376 47.9967 355.907 47.9967 354.412C47.9967 353.123 47.7648 351.86 47.3008 350.623C46.8368 349.386 45.9605 348.226 44.6717 347.143C43.4345 346.009 41.7075 344.978 39.4908 344.05C37.3256 343.122 34.5161 342.298 31.0622 341.576C25.4946 340.493 20.9066 338.895 17.298 336.782C13.7409 334.616 10.9056 332.271 8.79203 329.745C6.67843 327.167 5.20922 324.564 4.3844 321.935C3.55958 319.306 3.14717 316.934 3.14717 314.821C3.14717 311.676 3.68846 308.48 4.77103 305.232C5.85361 301.933 7.60635 298.943 10.0293 296.262C12.5037 293.53 15.7257 291.313 19.6951 289.612C23.6646 287.859 28.5619 286.983 34.3872 286.983C39.9032 287.344 44.8263 288.607 49.1566 290.772C51.0125 291.7 52.8168 292.886 54.5695 294.329C56.3738 295.721 57.9719 297.448 59.3638 299.51C60.7557 301.572 61.864 303.995 62.6888 306.779C63.5652 309.511 64.0034 312.681 64.0034 316.29C64.0034 317.063 63.9518 317.888 63.8487 318.764C63.7972 319.589 63.7199 320.44 63.6168 321.316L49.6979 320.852ZM82.7938 331.291C82.6907 331.858 82.665 332.425 82.7165 332.993C82.7681 333.508 82.7938 334.049 82.7938 334.616C82.7938 339.772 83.3093 344.128 84.3404 347.685C85.3714 351.19 86.6602 354.103 88.2067 356.423C89.8048 358.742 91.5318 360.521 93.3876 361.758C95.295 362.995 97.0735 363.923 98.7232 364.542C100.373 365.109 101.79 365.444 102.976 365.547C104.162 365.65 104.884 365.702 105.141 365.702C105.09 365.702 105.451 365.676 106.224 365.624C106.997 365.521 108.002 365.315 109.24 365.006C110.528 364.645 111.972 364.104 113.57 363.382C115.168 362.66 116.74 361.655 118.287 360.366C119.885 359.026 121.38 357.376 122.772 355.417C124.164 353.407 125.298 350.958 126.174 348.071L135.685 350.778C134.912 353.974 133.881 356.809 132.592 359.284C131.304 361.758 129.86 363.923 128.262 365.779C126.715 367.635 125.04 369.233 123.236 370.573C121.483 371.862 119.756 372.919 118.055 373.744C114.034 375.806 109.729 377.017 105.141 377.378C100.605 377.378 96.5838 376.708 93.0783 375.368C89.6244 373.976 86.6344 372.12 84.1084 369.8C81.5824 367.48 79.4688 364.825 77.7676 361.835C76.0664 358.845 74.7003 355.727 73.6693 352.479C72.6898 349.18 71.9681 345.906 71.5041 342.658C71.0917 339.359 70.8855 336.266 70.8855 333.379C70.8855 330.698 71.0401 327.76 71.3495 324.564C71.6588 321.368 72.2516 318.146 73.128 314.898C74.0043 311.65 75.2416 308.506 76.8397 305.464C78.4377 302.423 80.5256 299.716 83.1031 297.345C85.6807 294.973 88.7995 293.092 92.4597 291.7C96.1714 290.257 100.553 289.535 105.605 289.535C106.482 289.535 107.899 289.638 109.858 289.844C111.869 289.999 114.111 290.514 116.586 291.391C119.06 292.215 121.612 293.504 124.241 295.257C126.87 296.958 129.267 299.355 131.432 302.448C133.649 305.541 135.453 309.434 136.845 314.125C138.289 318.816 139.01 324.538 139.01 331.291H82.7938ZM105.141 301.366C101.584 301.624 98.3107 302.474 95.3208 303.918C94.032 304.536 92.7432 305.335 91.4544 306.315C90.2172 307.243 89.0573 308.403 87.9747 309.794C86.8922 311.135 85.9385 312.733 85.1136 314.589C84.2888 316.445 83.7218 318.584 83.4124 321.007H125.865C125.556 317.965 124.731 315.233 123.39 312.81C122.05 310.387 120.4 308.325 118.442 306.624C116.534 304.923 114.395 303.634 112.023 302.758C109.704 301.83 107.41 301.366 105.141 301.366ZM189.273 293.479C192.263 293.479 194.763 294.097 196.774 295.334C198.836 296.572 200.485 298.221 201.723 300.283C203.011 302.345 203.913 304.742 204.429 307.475C204.996 310.155 205.28 312.939 205.28 315.826C205.28 318.661 205.125 322.089 204.816 326.11C204.506 330.08 203.836 334.127 202.805 338.251L193.294 336.859C193.913 333.199 194.325 329.848 194.531 326.806C194.737 323.713 194.84 321.033 194.84 318.764C194.84 313.248 194.248 309.382 193.062 307.165C191.928 304.897 190.149 303.763 187.726 303.763C185.613 303.763 183.319 304.742 180.844 306.701C178.37 308.66 175.947 311.625 173.576 315.594C171.204 319.563 169.039 324.564 167.08 330.595C165.121 336.627 163.6 343.715 162.518 351.86V379.157L150.841 378.538C150.79 363.537 150.635 350.726 150.377 340.107C150.171 329.435 149.965 320.723 149.759 313.97C149.45 306.031 149.114 299.51 148.754 294.406L162.518 293.479V318.764C163.549 315.981 164.863 313.12 166.461 310.181C168.111 307.191 170.044 304.459 172.261 301.984C174.529 299.51 177.055 297.474 179.839 295.876C182.674 294.278 185.819 293.479 189.273 293.479ZM273.404 296.34L247.732 376.605H232.344L209.069 296.649L223.065 294.406L240.773 367.867L259.331 294.406L273.404 296.34ZM288.793 331.291C288.689 331.858 288.664 332.425 288.715 332.993C288.767 333.508 288.793 334.049 288.793 334.616C288.793 339.772 289.308 344.128 290.339 347.685C291.37 351.19 292.659 354.103 294.205 356.423C295.804 358.742 297.53 360.521 299.386 361.758C301.294 362.995 303.072 363.923 304.722 364.542C306.372 365.109 307.789 365.444 308.975 365.547C310.161 365.65 310.882 365.702 311.14 365.702C311.088 365.702 311.449 365.676 312.223 365.624C312.996 365.521 314.001 365.315 315.238 365.006C316.527 364.645 317.971 364.104 319.569 363.382C321.167 362.66 322.739 361.655 324.286 360.366C325.884 359.026 327.379 357.376 328.771 355.417C330.162 353.407 331.297 350.958 332.173 348.071L341.684 350.778C340.911 353.974 339.88 356.809 338.591 359.284C337.302 361.758 335.859 363.923 334.261 365.779C332.714 367.635 331.039 369.233 329.234 370.573C327.482 371.862 325.755 372.919 324.054 373.744C320.033 375.806 315.728 377.017 311.14 377.378C306.603 377.378 302.583 376.708 299.077 375.368C295.623 373.976 292.633 372.12 290.107 369.8C287.581 367.48 285.467 364.825 283.766 361.835C282.065 358.845 280.699 355.727 279.668 352.479C278.689 349.18 277.967 345.906 277.503 342.658C277.09 339.359 276.884 336.266 276.884 333.379C276.884 330.698 277.039 327.76 277.348 324.564C277.657 321.368 278.25 318.146 279.127 314.898C280.003 311.65 281.24 308.506 282.838 305.464C284.436 302.423 286.524 299.716 289.102 297.345C291.679 294.973 294.798 293.092 298.458 291.7C302.17 290.257 306.552 289.535 311.604 289.535C312.48 289.535 313.898 289.638 315.857 289.844C317.867 289.999 320.11 290.514 322.584 291.391C325.059 292.215 327.611 293.504 330.24 295.257C332.869 296.958 335.266 299.355 337.431 302.448C339.648 305.541 341.452 309.434 342.844 314.125C344.287 318.816 345.009 324.538 345.009 331.291H288.793ZM311.14 301.366C307.583 301.624 304.309 302.474 301.319 303.918C300.031 304.536 298.742 305.335 297.453 306.315C296.216 307.243 295.056 308.403 293.973 309.794C292.891 311.135 291.937 312.733 291.112 314.589C290.288 316.445 289.72 318.584 289.411 321.007H331.864C331.554 317.965 330.729 315.233 329.389 312.81C328.049 310.387 326.399 308.325 324.44 306.624C322.533 304.923 320.393 303.634 318.022 302.758C315.702 301.83 313.408 301.366 311.14 301.366ZM395.272 293.479C398.262 293.479 400.762 294.097 402.772 295.334C404.834 296.572 406.484 298.221 407.721 300.283C409.01 302.345 409.912 304.742 410.428 307.475C410.995 310.155 411.278 312.939 411.278 315.826C411.278 318.661 411.124 322.089 410.814 326.11C410.505 330.08 409.835 334.127 408.804 338.251L399.293 336.859C399.911 333.199 400.324 329.848 400.53 326.806C400.736 323.713 400.839 321.033 400.839 318.764C400.839 313.248 400.246 309.382 399.061 307.165C397.927 304.897 396.148 303.763 393.725 303.763C391.611 303.763 389.317 304.742 386.843 306.701C384.369 308.66 381.946 311.625 379.574 315.594C377.203 319.563 375.038 324.564 373.079 330.595C371.12 336.627 369.599 343.715 368.517 351.86V379.157L356.84 378.538C356.789 363.537 356.634 350.726 356.376 340.107C356.17 329.435 355.964 320.723 355.758 313.97C355.448 306.031 355.113 299.51 354.752 294.406L368.517 293.479V318.764C369.548 315.981 370.862 313.12 372.46 310.181C374.11 307.191 376.043 304.459 378.26 301.984C380.528 299.51 383.054 297.474 385.838 295.876C388.673 294.278 391.818 293.479 395.272 293.479ZM464.17 320.852C464.273 320.388 464.324 319.924 464.324 319.46C464.324 318.945 464.324 318.404 464.324 317.836C464.324 315.207 463.938 312.759 463.165 310.49C462.443 308.171 461.386 306.16 459.994 304.459C458.654 302.706 457.004 301.34 455.045 300.361C453.086 299.33 450.921 298.814 448.55 298.814C445.818 298.814 443.343 299.175 441.126 299.897C438.91 300.567 437.002 301.572 435.404 302.912C433.858 304.253 432.646 305.928 431.77 307.939C430.894 309.898 430.455 312.192 430.455 314.821C430.455 316.316 430.816 317.862 431.538 319.46C432.311 321.007 433.445 322.476 434.94 323.868C436.435 325.26 438.265 326.497 440.43 327.58C442.647 328.662 445.225 329.435 448.163 329.899C453.679 330.827 458.164 332.193 461.618 333.998C465.124 335.751 467.856 337.735 469.815 339.952C471.825 342.169 473.191 344.463 473.913 346.834C474.635 349.205 474.996 351.422 474.996 353.484C474.996 354.773 474.841 356.242 474.532 357.892C474.274 359.541 473.758 361.243 472.985 362.995C472.212 364.748 471.129 366.475 469.737 368.176C468.397 369.826 466.644 371.321 464.479 372.661C462.314 373.95 459.711 375.007 456.669 375.832C453.679 376.656 450.122 377.069 445.998 377.069C445.586 377.069 444.658 377.017 443.214 376.914C441.822 376.811 440.147 376.476 438.188 375.909C436.281 375.342 434.219 374.491 432.002 373.357C429.837 372.223 427.775 370.625 425.816 368.563C423.857 366.501 422.13 363.897 420.635 360.753C419.191 357.608 418.238 353.768 417.774 349.231L430.455 348.535C430.816 351.525 431.461 354.025 432.388 356.036C433.368 358.046 434.476 359.722 435.714 361.062C437.002 362.351 438.317 363.356 439.657 364.078C441.049 364.8 442.338 365.341 443.524 365.702C444.761 366.011 445.792 366.192 446.617 366.243C447.493 366.295 448.009 366.32 448.163 366.32C450.328 366.269 452.287 365.908 454.04 365.238C455.844 364.516 457.365 363.614 458.602 362.531C459.84 361.449 460.793 360.212 461.463 358.82C462.134 357.376 462.469 355.907 462.469 354.412C462.469 353.123 462.237 351.86 461.773 350.623C461.309 349.386 460.432 348.226 459.144 347.143C457.906 346.009 456.179 344.978 453.963 344.05C451.798 343.122 448.988 342.298 445.534 341.576C439.967 340.493 435.378 338.895 431.77 336.782C428.213 334.616 425.378 332.271 423.264 329.745C421.15 327.167 419.681 324.564 418.856 321.935C418.031 319.306 417.619 316.934 417.619 314.821C417.619 311.676 418.16 308.48 419.243 305.232C420.326 301.933 422.078 298.943 424.501 296.262C426.976 293.53 430.198 291.313 434.167 289.612C438.136 287.859 443.034 286.983 448.859 286.983C454.375 287.344 459.298 288.607 463.629 290.772C465.484 291.7 467.289 292.886 469.041 294.329C470.846 295.721 472.444 297.448 473.836 299.51C475.228 301.572 476.336 303.995 477.161 306.779C478.037 309.511 478.475 312.681 478.475 316.29C478.475 317.063 478.424 317.888 478.321 318.764C478.269 319.589 478.192 320.44 478.089 321.316L464.17 320.852Z" fill="white"/>
</svg>
